<?xml version="1.0" encoding="UTF-8" standalone="no"?>
<!-- Created with Inkscape (http://www.inkscape.org/) -->

<svg
   version="1.1"
   id="svg1"
   width="1200"
   height="1200"
   viewBox="0 0 1200 1200"
   xmlns="http://www.w3.org/2000/svg"
   xmlns:svg="http://www.w3.org/2000/svg">
  <defs
     id="defs1" />
  <g
     id="g1">
    <g
       id="g2">
      <path
         style="fill:#c3cfc3"
         d="M 0,600 V 0 h 600 600 v 600 600 H 600 0 Z m 552.64838,181.03022 c 21.87274,-6.06124 50.25279,-25.00491 68.46246,-45.69866 l 4.54803,-5.16845 2.28144,7.16845 c 7.6108,23.91359 22.26495,38.85385 41.89854,42.71652 8.31939,1.63674 25.45294,0.69087 35.54556,-1.96232 16.17387,-4.25186 34.41577,-14.14556 47.92378,-25.99201 3.19451,-2.80156 5.98062,-5.09375 6.19136,-5.09375 0.21074,0 1.86528,2.78072 3.67674,6.17938 9.52765,17.8757 27.84808,27.83877 51.13576,27.80879 26.70375,-0.0344 53.94381,-14.22337 79.13809,-41.22203 10.73003,-11.49851 14.07411,-17.76918 13.07104,-24.51018 -1.33199,-8.95139 -12.70404,-16.54718 -20.9738,-14.00912 -2.16761,0.66526 -7.69933,5.45537 -16.171,14.00302 -14.43048,14.55991 -21.7218,20.19176 -32.72056,25.2735 -6.35907,2.93807 -8.62697,3.47664 -14.63994,3.47664 -7.57757,0 -11.13042,-1.2541 -14.60404,-5.15499 -4.04337,-4.54072 -4.91394,-8.62241 -4.87254,-22.84501 0.0385,-13.22165 1.59433,-23.20435 5.92247,-38 9.15695,-31.30286 12.82824,-41.37455 21.50642,-59 7.00244,-14.22201 6.33972,-17.73506 -4.46819,-23.68574 -6.75465,-3.71901 -17.52092,-3.38488 -25.72049,0.79823 -13.34633,6.80878 -28.81363,42.25262 -38.76989,88.8425 C 759.90433,690.12714 759,695.61041 759,697.14003 c 0,1.52961 -0.7211,3.36136 -1.60245,4.07054 -0.88135,0.70919 -6.39385,6.06137 -12.25,11.89375 C 723.94399,734.2218 706.20627,744.12989 690,743.90914 678.19201,743.7483 669.71894,735.33983 665.90716,720 c -1.54284,-6.20886 -1.89458,-31.53984 -0.58564,-42.17464 l 0.82153,-6.67464 7.67847,-6.32536 C 697.99869,644.90874 725.23565,614.71766 746.7383,584 c 30.88801,-44.12512 48.86031,-85.19602 54.79136,-125.21107 1.99109,-13.43326 0.94006,-22.93446 -3.5128,-31.75554 -7.26469,-14.39127 -19.87163,-21.02571 -37.42401,-19.69449 -17.4384,1.32256 -31.83432,8.73464 -47.5894,24.50252 -19.5749,19.59079 -36.18805,46.44982 -49.27134,79.65858 -22.96525,58.29171 -37.7887,120.07345 -41.32164,172.22186 -0.39465,5.82541 -1.08986,9.97629 -1.61637,9.65089 -0.50813,-0.31404 -2.42235,-0.28987 -4.25383,0.0537 -2.68224,0.50319 -4.56612,2.22368 -9.68512,8.84514 -15.57622,20.14795 -38.24512,38.36732 -54.44489,43.75825 -11.4568,3.81258 -25.56907,2.27895 -28.44299,-3.09101 -1.77949,-3.32502 -0.65637,-11.00999 2.57421,-17.61397 3.89149,-7.95504 17.27224,-21.09811 30.30513,-29.76682 17.48848,-11.63231 27.75434,-22.60921 34.65758,-37.05806 11.01532,-23.05561 4.76514,-49.28361 -14.00419,-58.76667 -4.29895,-2.17201 -17.60817,-4.10518 -23.83691,-3.46232 -23.56628,2.43226 -44.12384,14.0818 -69.16309,39.1933 -21.68647,21.74904 -39.20868,45.26358 -60.66021,81.40505 C 414.74722,732.18849 414,733.16247 414,729.69526 c 0,-6.05839 2.88015,-31.86217 5.58056,-49.99728 l 2.50191,-16.80203 15.76686,-15.69797 C 475.78553,609.42751 511.30013,565.7319 530.66634,533 c 18.87194,-31.89651 27.87255,-55.32789 29.02771,-75.56811 1.34668,-23.5961 -6.20422,-39.77516 -21.95974,-47.05237 -5.78504,-2.67201 -7.09909,-2.87799 -18.23431,-2.85834 -23.07466,0.0407 -39.86631,7.61473 -58.60096,26.43245 -14.4373,14.50131 -25.14982,30.00692 -35.2669,51.04637 -21.80564,45.34691 -40.39787,119.64881 -48.29351,193 -2.56339,23.8141 -2.59946,74.72031 -0.0595,84 2.61855,9.56687 6.29623,15.03572 12.02298,17.87865 4.41317,2.19083 5.24187,2.28932 10.49472,1.24738 3.13675,-0.6222 8.62819,-2.54867 12.20319,-4.28105 12.15962,-5.89231 35.42319,-31.99724 51.99449,-58.34498 14.07137,-22.37293 23.9837,-35.44395 37.4136,-49.33591 14.15779,-14.64491 26.81996,-22.25606 38.24651,-22.98975 5.73331,-0.36813 6.27147,-0.2168 7.86212,2.21083 1.19042,1.81681 1.51659,3.62373 1.07705,5.96667 -1.256,6.69509 -6.42074,12.41573 -23.73707,26.29205 -24.01654,19.24546 -34.42884,31.50187 -38.42399,45.22922 -2.30748,7.9285 -1.57104,23.52907 1.48171,31.38843 3.53218,9.09364 12.91154,17.50623 24.20516,21.71023 11.7544,4.37552 29.00556,5.2517 40.5288,2.05845 z M 671.44629,624.75 c 0.26641,-1.2375 1.42925,-7.2 2.58408,-13.25 7.25281,-37.99644 25.40633,-92.31803 40.60361,-121.5 12.50762,-24.01728 23.5011,-34.98907 35.42481,-35.35495 8.76617,-0.26899 11.03154,4.55027 9.03837,19.22785 -3.67507,27.06303 -20.02551,61.517 -49.73099,104.79415 C 698.29641,594.7943 672.96844,627 671.35503,627 c -0.21622,0 -0.17516,-1.0125 0.0913,-2.25 z M 430.39295,607.95551 c 0.29383,-1.35053 1.26294,-6.28051 2.15359,-10.95551 7.95948,-41.77907 28.77436,-97.27874 45.62668,-121.65648 13.25681,-19.17665 30.56092,-26.98967 36.14824,-16.32137 1.50516,2.87393 1.73413,5.04069 1.3186,12.47785 -1.2981,23.23329 -12.23938,45.45121 -41.36756,84.00299 -17.15651,22.70703 -44.52598,55.42381 -43.87955,52.45252 z m 424.96041,-54.39892 c 5.73899,-2.48692 13.11815,-9.9006 15.6024,-15.67539 2.94077,-6.83601 3.07673,-19.75865 0.27453,-26.09349 -8.78045,-19.84967 -47.8104,-17.68694 -58.4858,3.24082 -5.09105,9.98034 -4.63841,21.96948 1.15129,30.49462 2.6707,3.93251 10.75659,8.87891 16.09279,9.84448 5.45769,0.98756 21.55963,-0.16212 25.36479,-1.81104 z"
         id="path9" />
      <path
         style="fill:#bac5ba"
         d="M 643.43709,765.75 640.5,762.5 l 3.25,2.93709 c 3.02946,2.73778 3.70965,3.56291 2.93709,3.56291 -0.1721,0 -1.6346,-1.4625 -3.25,-3.25 z M 881.5,751 c 0.99549,-1.1 2.03498,-2 2.30998,-2 0.275,0 -0.31449,0.9 -1.30998,2 -0.99549,1.1 -2.03498,2 -2.30998,2 -0.275,0 0.31449,-0.9 1.30998,-2 z m -122.88691,-4.18298 c 0.28881,-0.4673 0.94401,-0.59075 1.45601,-0.27431 1.30838,0.80862 1.16106,1.12396 -0.52511,1.12396 -0.80081,0 -1.21971,-0.38234 -0.9309,-0.84965 z M 613.5,743 c 0.99549,-1.1 2.03498,-2 2.30998,-2 0.275,0 -0.31449,0.9 -1.30998,2 -0.99549,1.1 -2.03498,2 -2.30998,2 -0.275,0 0.31449,-0.9 1.30998,-2 z M 586,724.62244 c 0,-0.20765 0.7875,-0.99515 1.75,-1.75 1.58606,-1.24387 1.62143,-1.2085 0.37756,0.37756 C 586.82119,724.91575 586,725.44548 586,724.62244 Z M 861.5,723 c 0.99549,-1.1 2.03498,-2 2.30998,-2 0.275,0 -0.31449,0.9 -1.30998,2 -0.99549,1.1 -2.03498,2 -2.30998,2 -0.275,0 0.31449,-0.9 1.30998,-2 z m -60.42105,-4.58333 c 0.048,-1.16495 0.28494,-1.4019 0.60416,-0.60417 0.28887,0.72187 0.25335,1.58438 -0.0789,1.91667 -0.33229,0.33229 -0.56864,-0.25834 -0.52522,-1.3125 z M 870,714.62244 c 0,-0.20765 0.7875,-0.99515 1.75,-1.75 1.58606,-1.24387 1.62143,-1.2085 0.37756,0.37756 C 870.82119,714.91575 870,715.44548 870,714.62244 Z m -273,-1 c 0,-0.20765 0.7875,-0.99515 1.75,-1.75 1.58606,-1.24387 1.62143,-1.2085 0.37756,0.37756 C 597.82119,713.91575 597,714.44548 597,713.62244 Z m 152,-5 c 0,-0.20765 0.7875,-0.99515 1.75,-1.75 1.58606,-1.24387 1.62143,-1.2085 0.37756,0.37756 C 749.82119,708.91575 749,709.44548 749,708.62244 Z m -373.92105,-5.20577 c 0.048,-1.16495 0.28494,-1.4019 0.60416,-0.60417 0.28887,0.72187 0.25335,1.58438 -0.0789,1.91667 -0.33229,0.33229 -0.56864,-0.25834 -0.52522,-1.3125 z M 611,696.62244 c 0,-0.20765 0.7875,-0.99515 1.75,-1.75 1.58606,-1.24387 1.62143,-1.2085 0.37756,0.37756 C 611.82119,696.91575 611,697.44548 611,696.62244 Z M 431,653.5 c 1.29175,-1.375 2.57363,-2.5 2.84863,-2.5 0.275,0 -0.55688,1.125 -1.84863,2.5 -1.29175,1.375 -2.57363,2.5 -2.84863,2.5 -0.275,0 0.55688,-1.125 1.84863,-2.5 z m 253,2.12244 c 0,-0.20765 0.7875,-0.99515 1.75,-1.75 1.58606,-1.24387 1.62143,-1.2085 0.37756,0.37756 C 684.82119,655.91575 684,656.44548 684,655.62244 Z M 447,637.5 c 1.29175,-1.375 2.57363,-2.5 2.84863,-2.5 0.275,0 -0.55688,1.125 -1.84863,2.5 -1.29175,1.375 -2.57363,2.5 -2.84863,2.5 -0.275,0 0.55688,-1.125 1.84863,-2.5 z M 709.5,630 c 0.99549,-1.1 2.03498,-2 2.30998,-2 0.275,0 -0.31449,0.9 -1.30998,2 -0.99549,1.1 -2.03498,2 -2.30998,2 -0.275,0 0.31449,-0.9 1.30998,-2 z M 459,624.62244 c 0,-0.20765 0.7875,-0.99515 1.75,-1.75 1.58606,-1.24387 1.62143,-1.2085 0.37756,0.37756 C 459.82119,624.91575 459,625.44548 459,624.62244 Z m 354.8125,-32.30555 c 0.72187,-0.28887 1.58438,-0.25335 1.91667,0.0789 0.33229,0.33229 -0.25834,0.56864 -1.3125,0.52522 -1.16495,-0.048 -1.4019,-0.28494 -0.60417,-0.60416 z M 809.19495,532.5 c 0.0204,-1.65 0.2445,-2.20394 0.49804,-1.23097 0.25354,0.97297 0.23687,2.32297 -0.0371,3 -0.27393,0.67703 -0.48137,-0.11903 -0.46099,-1.76903 z m -0.116,-7.08333 c 0.048,-1.16495 0.28494,-1.4019 0.60416,-0.60417 0.28887,0.72187 0.25335,1.58438 -0.0789,1.91667 -0.33229,0.33229 -0.56864,-0.25834 -0.52522,-1.3125 z M 729,466.62244 c 0,-0.20765 0.7875,-0.99515 1.75,-1.75 1.58606,-1.24387 1.62143,-1.2085 0.37756,0.37756 C 729.82119,466.91575 729,467.44548 729,466.62244 Z m -274,-27 c 0,-0.20765 0.7875,-0.99515 1.75,-1.75 1.58606,-1.24387 1.62143,-1.2085 0.37756,0.37756 C 455.82119,439.91575 455,440.44548 455,439.62244 Z M 465.5,429 c 0.99549,-1.1 2.03498,-2 2.30998,-2 0.275,0 -0.31449,0.9 -1.30998,2 -0.99549,1.1 -2.03498,2 -2.30998,2 -0.275,0 0.31449,-0.9 1.30998,-2 z"
         id="path8" />
      <path
         style="fill:#aab4aa"
         d="m 527.8125,782.31689 c 0.72187,-0.28887 1.58438,-0.25335 1.91667,0.0789 0.33229,0.33229 -0.25834,0.56864 -1.3125,0.52522 -1.16495,-0.048 -1.4019,-0.28494 -0.60417,-0.60416 z m 161,-2 c 0.72187,-0.28887 1.58438,-0.25335 1.91667,0.0789 0.33229,0.33229 -0.25834,0.56864 -1.3125,0.52522 -1.16495,-0.048 -1.4019,-0.28494 -0.60417,-0.60416 z m 133,0 c 0.72187,-0.28887 1.58438,-0.25335 1.91667,0.0789 0.33229,0.33229 -0.25834,0.56864 -1.3125,0.52522 -1.16495,-0.048 -1.4019,-0.28494 -0.60417,-0.60416 z M 422,769.62244 c 0,-0.20765 0.7875,-0.99515 1.75,-1.75 1.58606,-1.24387 1.62143,-1.2085 0.37756,0.37756 C 422.82119,769.91575 422,770.44548 422,769.62244 Z M 494.40499,767.75 492.5,765.5 l 2.25,1.90499 c 1.2375,1.04774 2.25,2.06024 2.25,2.25 0,0.80025 -0.80479,0.20945 -2.59501,-1.90499 z m 277,-3 -1.90499,-2.25 2.25,1.90499 c 2.11444,1.79022 2.70524,2.59501 1.90499,2.59501 -0.18976,0 -1.20226,-1.0125 -2.25,-2.25 z M 375.07895,749.41667 c 0.048,-1.16495 0.28494,-1.4019 0.60416,-0.60417 0.28887,0.72187 0.25335,1.58438 -0.0789,1.91667 -0.33229,0.33229 -0.56864,-0.25834 -0.52522,-1.3125 z M 887.95821,744.75 c 2.45201,-2.6125 4.58951,-4.75 4.75,-4.75 0.75088,0 -0.043,0.89783 -4.45821,5.04179 L 883.5,749.5 Z m -68.19655,-0.45726 c 1.24391,-0.23919 3.04391,-0.23011 4,0.0202 0.95609,0.25029 -0.0617,0.446 -2.26166,0.4349 -2.2,-0.0111 -2.98225,-0.21589 -1.73834,-0.45508 z M 806.87244,739.25 c -1.24387,-1.58606 -1.2085,-1.62143 0.37756,-0.37756 0.9625,0.75485 1.75,1.54235 1.75,1.75 0,0.82304 -0.82119,0.29331 -2.12756,-1.37244 z M 522.15789,737 c 0,-1.375 0.22698,-1.9375 0.50439,-1.25 0.27741,0.6875 0.27741,1.8125 0,2.5 -0.27741,0.6875 -0.50439,0.125 -0.50439,-1.25 z m 279.03706,-14.5 c 0.0204,-1.65 0.2445,-2.20394 0.49804,-1.23097 0.25354,0.97297 0.23687,2.32297 -0.0371,3 -0.27393,0.67703 -0.48137,-0.11903 -0.46099,-1.76903 z m -387.116,-3.08333 c 0.048,-1.16495 0.28494,-1.4019 0.60416,-0.60417 0.28887,0.72187 0.25335,1.58438 -0.0789,1.91667 -0.33229,0.33229 -0.56864,-0.25834 -0.52522,-1.3125 z M 801.15789,715 c 0,-1.375 0.22698,-1.9375 0.50439,-1.25 0.27741,0.6875 0.27741,1.8125 0,2.5 -0.27741,0.6875 -0.50439,0.125 -0.50439,-1.25 z M 537,710.5 c 1.86578,-1.925 3.61733,-3.5 3.89233,-3.5 0.275,0 -1.02655,1.575 -2.89233,3.5 -1.86578,1.925 -3.61733,3.5 -3.89233,3.5 -0.275,0 1.02655,-1.575 2.89233,-3.5 z m 336,1.12244 c 0,-0.20765 0.7875,-0.99515 1.75,-1.75 1.58606,-1.24387 1.62143,-1.2085 0.37756,0.37756 C 873.82119,711.91575 873,712.44548 873,711.62244 Z m -273,-1 c 0,-0.20765 0.7875,-0.99515 1.75,-1.75 1.58606,-1.24387 1.62143,-1.2085 0.37756,0.37756 C 600.82119,710.91575 600,711.44548 600,710.62244 Z M 375.15789,707 c 0,-1.375 0.22698,-1.9375 0.50439,-1.25 0.27741,0.6875 0.27741,1.8125 0,2.5 -0.27741,0.6875 -0.50439,0.125 -0.50439,-1.25 z M 500,702.62244 c 0,-0.20765 0.7875,-0.99515 1.75,-1.75 1.58606,-1.24387 1.62143,-1.2085 0.37756,0.37756 C 500.82119,702.91575 500,703.44548 500,702.62244 Z M 622.29966,689 c 0,-3.025 0.18747,-4.2625 0.41659,-2.75 0.22913,1.5125 0.22913,3.9875 0,5.5 -0.22912,1.5125 -0.41659,0.275 -0.41659,-2.75 z M 570,685.62244 c 0,-0.20765 0.7875,-0.99515 1.75,-1.75 1.58606,-1.24387 1.62143,-1.2085 0.37756,0.37756 C 570.82119,685.91575 570,686.44548 570,685.62244 Z m 94.07895,-1.20577 c 0.048,-1.16495 0.28494,-1.4019 0.60416,-0.60417 0.28887,0.72187 0.25335,1.58438 -0.0789,1.91667 -0.33229,0.33229 -0.56864,-0.25834 -0.52522,-1.3125 z M 576.5,679 c 0.99549,-1.1 2.03498,-2 2.30998,-2 0.275,0 -0.31449,0.9 -1.30998,2 -0.99549,1.1 -2.03498,2 -2.30998,2 -0.275,0 0.31449,-0.9 1.30998,-2 z M 502.95821,666.75 C 507.10217,662.33481 508,661.54091 508,662.29179 c 0,0.16049 -2.1375,2.29799 -4.75,4.75 L 498.5,671.5 Z M 687,652.62244 c 0,-0.20765 0.7875,-0.99515 1.75,-1.75 1.58606,-1.24387 1.62143,-1.2085 0.37756,0.37756 C 687.82119,652.91575 687,653.44548 687,652.62244 Z M 439,645.5 c 2.98742,-3.025 5.65668,-5.5 5.93168,-5.5 0.275,0 -1.94426,2.475 -4.93168,5.5 -2.98742,3.025 -5.65668,5.5 -5.93168,5.5 -0.275,0 1.94426,-2.475 4.93168,-5.5 z m 37,-1.87756 c 0,-0.20765 0.7875,-0.99515 1.75,-1.75 1.58606,-1.24387 1.62143,-1.2085 0.37756,0.37756 C 476.82119,643.91575 476,644.44548 476,643.62244 Z m 120.07895,-4.20577 c 0.048,-1.16495 0.28494,-1.4019 0.60416,-0.60417 0.28887,0.72187 0.25335,1.58438 -0.0789,1.91667 -0.33229,0.33229 -0.56864,-0.25834 -0.52522,-1.3125 z M 705,634.62244 c 0,-0.20765 0.7875,-0.99515 1.75,-1.75 1.58606,-1.24387 1.62143,-1.2085 0.37756,0.37756 C 705.82119,634.91575 705,635.44548 705,634.62244 Z m -108.92105,-4.20577 c 0.048,-1.16495 0.28494,-1.4019 0.60416,-0.60417 0.28887,0.72187 0.25335,1.58438 -0.0789,1.91667 -0.33229,0.33229 -0.56864,-0.25834 -0.52522,-1.3125 z M 491,628.62244 c 0,-0.20765 0.7875,-0.99515 1.75,-1.75 1.58606,-1.24387 1.62143,-1.2085 0.37756,0.37756 C 491.82119,628.91575 491,629.44548 491,628.62244 Z m -35,-1 c 0,-0.20765 0.7875,-0.99515 1.75,-1.75 1.58606,-1.24387 1.62143,-1.2085 0.37756,0.37756 C 456.82119,627.91575 456,628.44548 456,627.62244 Z m 9,-10 c 0,-0.20765 0.7875,-0.99515 1.75,-1.75 1.58606,-1.24387 1.62143,-1.2085 0.37756,0.37756 C 465.82119,617.91575 465,618.44548 465,617.62244 Z m 7,-8 c 0,-0.20765 0.7875,-0.99515 1.75,-1.75 1.58606,-1.24387 1.62143,-1.2085 0.37756,0.37756 C 472.82119,609.91575 472,610.44548 472,609.62244 Z M 585.87244,606.25 c -1.24387,-1.58606 -1.2085,-1.62143 0.37756,-0.37756 0.9625,0.75485 1.75,1.54235 1.75,1.75 0,0.82304 -0.82119,0.29331 -2.12756,-1.37244 z m 248.20651,0.16667 c 0.048,-1.16495 0.28494,-1.4019 0.60416,-0.60417 0.28887,0.72187 0.25335,1.58438 -0.0789,1.91667 -0.33229,0.33229 -0.56864,-0.25834 -0.52522,-1.3125 z M 794,600.62244 c 0,-0.20765 0.7875,-0.99515 1.75,-1.75 1.58606,-1.24387 1.62143,-1.2085 0.37756,0.37756 C 794.82119,600.91575 794,601.44548 794,600.62244 Z m -240.1875,-4.30555 c 0.72187,-0.28887 1.58438,-0.25335 1.91667,0.0789 0.33229,0.33229 -0.25834,0.56864 -1.3125,0.52522 -1.16495,-0.048 -1.4019,-0.28494 -0.60417,-0.60416 z m 7,0 c 0.72187,-0.28887 1.58438,-0.25335 1.91667,0.0789 0.33229,0.33229 -0.25834,0.56864 -1.3125,0.52522 -1.16495,-0.048 -1.4019,-0.28494 -0.60417,-0.60416 z m 248.26645,-67.90022 c 0.048,-1.16495 0.28494,-1.4019 0.60416,-0.60417 0.28887,0.72187 0.25335,1.58438 -0.0789,1.91667 -0.33229,0.33229 -0.56864,-0.25834 -0.52522,-1.3125 z M 816,509.62244 c 0,-0.20765 0.7875,-0.99515 1.75,-1.75 1.58606,-1.24387 1.62143,-1.2085 0.37756,0.37756 C 816.82119,509.91575 816,510.44548 816,509.62244 Z m 23.26903,-11.31543 c 0.97297,-0.25354 2.32297,-0.23687 3,0.0371 0.67703,0.27393 -0.11903,0.48137 -1.76903,0.46099 -1.65,-0.0204 -2.20394,-0.2445 -1.23097,-0.49804 z m 8,0 c 0.97297,-0.25354 2.32297,-0.23687 3,0.0371 0.67703,0.27393 -0.11903,0.48137 -1.76903,0.46099 -1.65,-0.0204 -2.20394,-0.2445 -1.23097,-0.49804 z M 484,466.68709 c 0,-0.1721 1.4625,-1.6346 3.25,-3.25 l 3.25,-2.93709 -2.93709,3.25 C 484.82513,466.77946 484,467.45965 484,466.68709 Z M 802.232,448 c 0,-1.925 0.2058,-2.7125 0.45733,-1.75 0.25152,0.9625 0.25152,2.5375 0,3.5 -0.25153,0.9625 -0.45733,0.175 -0.45733,-1.75 z M 458,436.68709 c 0,-0.1721 1.4625,-1.6346 3.25,-3.25 l 3.25,-2.93709 -2.93709,3.25 C 458.82513,436.77946 458,437.45965 458,436.68709 Z M 712.95821,431.75 c 2.45201,-2.6125 4.58951,-4.75 4.75,-4.75 0.75088,0 -0.043,0.89783 -4.45821,5.04179 L 708.5,436.5 Z"
         id="path7" />
      <path
         style="fill:#8a938a"
         d="m 674.8125,780.31689 c 0.72187,-0.28887 1.58438,-0.25335 1.91667,0.0789 0.33229,0.33229 -0.25834,0.56864 -1.3125,0.52522 -1.16495,-0.048 -1.4019,-0.28494 -0.60417,-0.60416 z m 9.9375,0.0208 c 0.6875,-0.27741 1.8125,-0.27741 2.5,0 0.6875,0.27741 0.125,0.50439 -1.25,0.50439 -1.375,0 -1.9375,-0.22698 -1.25,-0.50439 z m 123.0625,-0.0208 c 0.72187,-0.28887 1.58438,-0.25335 1.91667,0.0789 0.33229,0.33229 -0.25834,0.56864 -1.3125,0.52522 -1.16495,-0.048 -1.4019,-0.28494 -0.60417,-0.60416 z m 11,0 c 0.72187,-0.28887 1.58438,-0.25335 1.91667,0.0789 0.33229,0.33229 -0.25834,0.56864 -1.3125,0.52522 -1.16495,-0.048 -1.4019,-0.28494 -0.60417,-0.60416 z M 430,761.5 c 1.29175,-1.375 2.57363,-2.5 2.84863,-2.5 0.275,0 -0.55688,1.125 -1.84863,2.5 -1.29175,1.375 -2.57363,2.5 -2.84863,2.5 -0.275,0 0.55688,-1.125 1.84863,-2.5 z m 395.8125,-17.18311 c 0.72187,-0.28887 1.58438,-0.25335 1.91667,0.0789 0.33229,0.33229 -0.25834,0.56864 -1.3125,0.52522 -1.16495,-0.048 -1.4019,-0.28494 -0.60417,-0.60416 z M 743,715.5 c 1.29175,-1.375 2.57363,-2.5 2.84863,-2.5 0.275,0 -0.55688,1.125 -1.84863,2.5 -1.29175,1.375 -2.57363,2.5 -2.84863,2.5 -0.275,0 0.55688,-1.125 1.84863,-2.5 z M 375.15789,711 c 0,-1.375 0.22698,-1.9375 0.50439,-1.25 0.27741,0.6875 0.27741,1.8125 0,2.5 -0.27741,0.6875 -0.50439,0.125 -0.50439,-1.25 z m 426,0 c 0,-1.375 0.22698,-1.9375 0.50439,-1.25 0.27741,0.6875 0.27741,1.8125 0,2.5 -0.27741,0.6875 -0.50439,0.125 -0.50439,-1.25 z M 663.232,698 c 0,-1.925 0.2058,-2.7125 0.45733,-1.75 0.25152,0.9625 0.25152,2.5375 0,3.5 -0.25153,0.9625 -0.45733,0.175 -0.45733,-1.75 z M 507,695.62244 c 0,-0.20765 0.7875,-0.99515 1.75,-1.75 1.58606,-1.24387 1.62143,-1.2085 0.37756,0.37756 C 507.82119,695.91575 507,696.44548 507,695.62244 Z m -130.92105,-2.20577 c 0.048,-1.16495 0.28494,-1.4019 0.60416,-0.60417 0.28887,0.72187 0.25335,1.58438 -0.0789,1.91667 -0.33229,0.33229 -0.56864,-0.25834 -0.52522,-1.3125 z M 693.5,646 c 2.14824,-2.2 4.1309,-4 4.4059,-4 0.275,0 -1.25766,1.8 -3.4059,4 -2.14824,2.2 -4.1309,4 -4.4059,4 -0.275,0 1.25766,-1.8 3.4059,-4 z m -154.6875,-0.68311 c 0.72187,-0.28887 1.58438,-0.25335 1.91667,0.0789 0.33229,0.33229 -0.25834,0.56864 -1.3125,0.52522 -1.16495,-0.048 -1.4019,-0.28494 -0.60417,-0.60416 z M 480.5,639 c 0.99549,-1.1 2.03498,-2 2.30998,-2 0.275,0 -0.31449,0.9 -1.30998,2 -0.99549,1.1 -2.03498,2 -2.30998,2 -0.275,0 0.31449,-0.9 1.30998,-2 z m 115.732,-4 c 0,-1.925 0.2058,-2.7125 0.45733,-1.75 0.25152,0.9625 0.25152,2.5375 0,3.5 -0.25153,0.9625 -0.45733,0.175 -0.45733,-1.75 z M 702,637.62244 c 0,-0.20765 0.7875,-0.99515 1.75,-1.75 1.58606,-1.24387 1.62143,-1.2085 0.37756,0.37756 C 702.82119,637.91575 702,638.44548 702,637.62244 Z M 556.75,596.33772 c 0.6875,-0.27741 1.8125,-0.27741 2.5,0 0.6875,0.27741 0.125,0.50439 -1.25,0.50439 -1.375,0 -1.9375,-0.22698 -1.25,-0.50439 z m 278,-41 c 0.6875,-0.27741 1.8125,-0.27741 2.5,0 0.6875,0.27741 0.125,0.50439 -1.25,0.50439 -1.375,0 -1.9375,-0.22698 -1.25,-0.50439 z m 9.0625,-0.0208 c 0.72187,-0.28887 1.58438,-0.25335 1.91667,0.0789 0.33229,0.33229 -0.25834,0.56864 -1.3125,0.52522 -1.16495,-0.048 -1.4019,-0.28494 -0.60417,-0.60416 z m 0,-57 c 0.72187,-0.28887 1.58438,-0.25335 1.91667,0.0789 0.33229,0.33229 -0.25834,0.56864 -1.3125,0.52522 -1.16495,-0.048 -1.4019,-0.28494 -0.60417,-0.60416 z M 516.25218,467.5 c 0.0111,-2.2 0.21589,-2.98225 0.45508,-1.73834 0.23919,1.24391 0.23011,3.04391 -0.0202,4 -0.25029,0.95609 -0.446,-0.0617 -0.4349,-2.26166 z m 42.82677,-8.08333 c 0.048,-1.16495 0.28494,-1.4019 0.60416,-0.60417 0.28887,0.72187 0.25335,1.58438 -0.0789,1.91667 -0.33229,0.33229 -0.56864,-0.25834 -0.52522,-1.3125 z M 514.8125,407.31689 c 0.72187,-0.28887 1.58438,-0.25335 1.91667,0.0789 0.33229,0.33229 -0.25834,0.56864 -1.3125,0.52522 -1.16495,-0.048 -1.4019,-0.28494 -0.60417,-0.60416 z m 9,0 c 0.72187,-0.28887 1.58438,-0.25335 1.91667,0.0789 0.33229,0.33229 -0.25834,0.56864 -1.3125,0.52522 -1.16495,-0.048 -1.4019,-0.28494 -0.60417,-0.60416 z m 236,0 c 0.72187,-0.28887 1.58438,-0.25335 1.91667,0.0789 0.33229,0.33229 -0.25834,0.56864 -1.3125,0.52522 -1.16495,-0.048 -1.4019,-0.28494 -0.60417,-0.60416 z"
         id="path6" />
      <path
         style="fill:#7b837b"
         d="m 677.8125,780.31689 c 0.72187,-0.28887 1.58438,-0.25335 1.91667,0.0789 0.33229,0.33229 -0.25834,0.56864 -1.3125,0.52522 -1.16495,-0.048 -1.4019,-0.28494 -0.60417,-0.60416 z m 138,0 c 0.72187,-0.28887 1.58438,-0.25335 1.91667,0.0789 0.33229,0.33229 -0.25834,0.56864 -1.3125,0.52522 -1.16495,-0.048 -1.4019,-0.28494 -0.60417,-0.60416 z M 413.232,732 c 0,-1.925 0.2058,-2.7125 0.45733,-1.75 0.25152,0.9625 0.25152,2.5375 0,3.5 -0.25153,0.9625 -0.45733,0.175 -0.45733,-1.75 z M 738,720.62244 c 0,-0.20765 0.7875,-0.99515 1.75,-1.75 1.58606,-1.24387 1.62143,-1.2085 0.37756,0.37756 C 738.82119,720.91575 738,721.44548 738,720.62244 Z m -144,-3 c 0,-0.20765 0.7875,-0.99515 1.75,-1.75 1.58606,-1.24387 1.62143,-1.2085 0.37756,0.37756 C 594.82119,717.91575 594,718.44548 594,717.62244 Z m -218.92105,-3.20577 c 0.048,-1.16495 0.28494,-1.4019 0.60416,-0.60417 0.28887,0.72187 0.25335,1.58438 -0.0789,1.91667 -0.33229,0.33229 -0.56864,-0.25834 -0.52522,-1.3125 z m 288,-12 c 0.048,-1.16495 0.28494,-1.4019 0.60416,-0.60417 0.28887,0.72187 0.25335,1.58438 -0.0789,1.91667 -0.33229,0.33229 -0.56864,-0.25834 -0.52522,-1.3125 z M 504,698.62244 c 0,-0.20765 0.7875,-0.99515 1.75,-1.75 1.58606,-1.24387 1.62143,-1.2085 0.37756,0.37756 C 504.82119,698.91575 504,699.44548 504,698.62244 Z m 159.07895,-5.20577 c 0.048,-1.16495 0.28494,-1.4019 0.60416,-0.60417 0.28887,0.72187 0.25335,1.58438 -0.0789,1.91667 -0.33229,0.33229 -0.56864,-0.25834 -0.52522,-1.3125 z M 540,668.62244 c 0,-0.20765 0.7875,-0.99515 1.75,-1.75 1.58606,-1.24387 1.62143,-1.2085 0.37756,0.37756 C 540.82119,668.91575 540,669.44548 540,668.62244 Z M 699.5,640 c 0.99549,-1.1 2.03498,-2 2.30998,-2 0.275,0 -0.31449,0.9 -1.30998,2 -0.99549,1.1 -2.03498,2 -2.30998,2 -0.275,0 0.31449,-0.9 1.30998,-2 z M 483,636.68709 c 0,-0.1721 1.4625,-1.6346 3.25,-3.25 l 3.25,-2.93709 -2.93709,3.25 C 483.82513,636.77946 483,637.45965 483,636.68709 Z m -32,-4.06465 c 0,-0.20765 0.7875,-0.99515 1.75,-1.75 1.58606,-1.24387 1.62143,-1.2085 0.37756,0.37756 C 451.82119,632.91575 451,633.44548 451,632.62244 Z M 872.07895,529.41667 c 0.048,-1.16495 0.28494,-1.4019 0.60416,-0.60417 0.28887,0.72187 0.25335,1.58438 -0.0789,1.91667 -0.33229,0.33229 -0.56864,-0.25834 -0.52522,-1.3125 z m 0,-10 c 0.048,-1.16495 0.28494,-1.4019 0.60416,-0.60417 0.28887,0.72187 0.25335,1.58438 -0.0789,1.91667 -0.33229,0.33229 -0.56864,-0.25834 -0.52522,-1.3125 z m -313,-70 c 0.048,-1.16495 0.28494,-1.4019 0.60416,-0.60417 0.28887,0.72187 0.25335,1.58438 -0.0789,1.91667 -0.33229,0.33229 -0.56864,-0.25834 -0.52522,-1.3125 z"
         id="path5" />
      <path
         style="fill:#6b716b"
         d="m 540.8125,782.31689 c 0.72187,-0.28887 1.58438,-0.25335 1.91667,0.0789 0.33229,0.33229 -0.25834,0.56864 -1.3125,0.52522 -1.16495,-0.048 -1.4019,-0.28494 -0.60417,-0.60416 z M 811.75,780.33772 c 0.6875,-0.27741 1.8125,-0.27741 2.5,0 0.6875,0.27741 0.125,0.50439 -1.25,0.50439 -1.375,0 -1.9375,-0.22698 -1.25,-0.50439 z M 641.87244,763.25 c -1.24387,-1.58606 -1.2085,-1.62143 0.37756,-0.37756 0.9625,0.75485 1.75,1.54235 1.75,1.75 0,0.82304 -0.82119,0.29331 -2.12756,-1.37244 z M 880.5,751 c 0.99549,-1.1 2.03498,-2 2.30998,-2 0.275,0 -0.31449,0.9 -1.30998,2 -0.99549,1.1 -2.03498,2 -2.30998,2 -0.275,0 0.31449,-0.9 1.30998,-2 z m -266.54179,-9.25 c 2.45201,-2.6125 4.58951,-4.75 4.75,-4.75 0.75088,0 -0.043,0.89783 -4.45821,5.04179 L 609.5,746.5 Z M 375.15789,743 c 0,-1.375 0.22698,-1.9375 0.50439,-1.25 0.27741,0.6875 0.27741,1.8125 0,2.5 -0.27741,0.6875 -0.50439,0.125 -0.50439,-1.25 z m 37.92106,-15.58333 c 0.048,-1.16495 0.28494,-1.4019 0.60416,-0.60417 0.28887,0.72187 0.25335,1.58438 -0.0789,1.91667 -0.33229,0.33229 -0.56864,-0.25834 -0.52522,-1.3125 z M 590,721.5 c 1.86578,-1.925 3.61733,-3.5 3.89233,-3.5 0.275,0 -1.02655,1.575 -2.89233,3.5 -1.86578,1.925 -3.61733,3.5 -3.89233,3.5 -0.275,0 1.02655,-1.575 2.89233,-3.5 z m 276,-2 c 1.86578,-1.925 3.61733,-3.5 3.89233,-3.5 0.275,0 -1.02655,1.575 -2.89233,3.5 -1.86578,1.925 -3.61733,3.5 -3.89233,3.5 -0.275,0 1.02655,-1.575 2.89233,-3.5 z M 375.232,719 c 0,-1.925 0.2058,-2.7125 0.45733,-1.75 0.25152,0.9625 0.25152,2.5375 0,3.5 -0.25153,0.9625 -0.45733,0.175 -0.45733,-1.75 z M 748,710.62244 c 0,-0.20765 0.7875,-0.99515 1.75,-1.75 1.58606,-1.24387 1.62143,-1.2085 0.37756,0.37756 C 748.82119,710.91575 748,711.44548 748,710.62244 Z M 663.15789,706 c 0,-1.375 0.22698,-1.9375 0.50439,-1.25 0.27741,0.6875 0.27741,1.8125 0,2.5 -0.27741,0.6875 -0.50439,0.125 -0.50439,-1.25 z M 682,656.62244 c 0,-0.20765 0.7875,-0.99515 1.75,-1.75 1.58606,-1.24387 1.62143,-1.2085 0.37756,0.37756 C 682.82119,656.91575 682,657.44548 682,656.62244 Z m -132.92105,-4.20577 c 0.048,-1.16495 0.28494,-1.4019 0.60416,-0.60417 0.28887,0.72187 0.25335,1.58438 -0.0789,1.91667 -0.33229,0.33229 -0.56864,-0.25834 -0.52522,-1.3125 z M 448,635.62244 c 0,-0.20765 0.7875,-0.99515 1.75,-1.75 1.58606,-1.24387 1.62143,-1.2085 0.37756,0.37756 C 448.82119,635.91575 448,636.44548 448,635.62244 Z m 262,-7 c 0,-0.20765 0.7875,-0.99515 1.75,-1.75 1.58606,-1.24387 1.62143,-1.2085 0.37756,0.37756 C 710.82119,628.91575 710,629.44548 710,628.62244 Z M 872.25218,524.5 c 0.0111,-2.2 0.21589,-2.98225 0.45508,-1.73834 0.23919,1.24391 0.23011,3.04391 -0.0202,4 -0.25029,0.95609 -0.446,-0.0617 -0.4349,-2.26166 z M 732,462.5 c 1.29175,-1.375 2.57363,-2.5 2.84863,-2.5 0.275,0 -0.55688,1.125 -1.84863,2.5 -1.29175,1.375 -2.57363,2.5 -2.84863,2.5 -0.275,0 0.55688,-1.125 1.84863,-2.5 z m -172.80505,-9 c 0.0204,-1.65 0.2445,-2.20394 0.49804,-1.23097 0.25354,0.97297 0.23687,2.32297 -0.0371,3 -0.27393,0.67703 -0.48137,-0.11903 -0.46099,-1.76903 z"
         id="path4" />
      <path
         style="fill:#5c625c"
         d="M 384.40499,775.75 382.5,773.5 l 2.25,1.90499 c 2.11444,1.79022 2.70524,2.59501 1.90499,2.59501 -0.18976,0 -1.20226,-1.0125 -2.25,-2.25 z m 260.46745,-9.5 c -1.24387,-1.58606 -1.2085,-1.62143 0.37756,-0.37756 0.9625,0.75485 1.75,1.54235 1.75,1.75 0,0.82304 -0.82119,0.29331 -2.12756,-1.37244 z M 886,745.5 c 1.86578,-1.925 3.61733,-3.5 3.89233,-3.5 0.275,0 -1.02655,1.575 -2.89233,3.5 -1.86578,1.925 -3.61733,3.5 -3.89233,3.5 -0.275,0 1.02655,-1.575 2.89233,-3.5 z m -400.92105,-4.08333 c 0.048,-1.16495 0.28494,-1.4019 0.60416,-0.60417 0.28887,0.72187 0.25335,1.58438 -0.0789,1.91667 -0.33229,0.33229 -0.56864,-0.25834 -0.52522,-1.3125 z M 375.15789,739 c 0,-1.375 0.22698,-1.9375 0.50439,-1.25 0.27741,0.6875 0.27741,1.8125 0,2.5 -0.27741,0.6875 -0.50439,0.125 -0.50439,-1.25 z M 892.5,739 c 0.99549,-1.1 2.03498,-2 2.30998,-2 0.275,0 -0.31449,0.9 -1.30998,2 -0.99549,1.1 -2.03498,2 -2.30998,2 -0.275,0 0.31449,-0.9 1.30998,-2 z M 375.25218,725.5 c 0.0111,-2.2 0.21589,-2.98225 0.45508,-1.73834 0.23919,1.24391 0.23011,3.04391 -0.0202,4 -0.25029,0.95609 -0.446,-0.0617 -0.4349,-2.26166 z M 872,713.62244 c 0,-0.20765 0.7875,-0.99515 1.75,-1.75 1.58606,-1.24387 1.62143,-1.2085 0.37756,0.37756 C 872.82119,713.91575 872,714.44548 872,713.62244 Z M 752.5,706 c 0.99549,-1.1 2.03498,-2 2.30998,-2 0.275,0 -0.31449,0.9 -1.30998,2 -0.99549,1.1 -2.03498,2 -2.30998,2 -0.275,0 0.31449,-0.9 1.30998,-2 z M 577,677.62244 c 0,-0.20765 0.7875,-0.99515 1.75,-1.75 1.58606,-1.24387 1.62143,-1.2085 0.37756,0.37756 C 577.82119,677.91575 577,678.44548 577,677.62244 Z M 503.5,665 c 0.99549,-1.1 2.03498,-2 2.30998,-2 0.275,0 -0.31449,0.9 -1.30998,2 -0.99549,1.1 -2.03498,2 -2.30998,2 -0.275,0 0.31449,-0.9 1.30998,-2 z M 429,654.68709 c 0,-0.1721 1.4625,-1.6346 3.25,-3.25 l 3.25,-2.93709 -2.93709,3.25 C 429.82513,654.77946 429,655.45965 429,654.68709 Z M 442.5,641 c 2.70865,-2.75 5.14982,-5 5.42482,-5 0.275,0 -1.71617,2.25 -4.42482,5 -2.70865,2.75 -5.14982,5 -5.42482,5 -0.275,0 1.71617,-2.25 4.42482,-5 z M 707,631.62244 c 0,-0.20765 0.7875,-0.99515 1.75,-1.75 1.58606,-1.24387 1.62143,-1.2085 0.37756,0.37756 C 707.82119,631.91575 707,632.44548 707,631.62244 Z m -250,-6 c 0,-0.20765 0.7875,-0.99515 1.75,-1.75 1.58606,-1.24387 1.62143,-1.2085 0.37756,0.37756 C 457.82119,625.91575 457,626.44548 457,625.62244 Z M 795,600.5 c 1.29175,-1.375 2.57363,-2.5 2.84863,-2.5 0.275,0 -0.55688,1.125 -1.84863,2.5 -1.29175,1.375 -2.57363,2.5 -2.84863,2.5 -0.275,0 0.55688,-1.125 1.84863,-2.5 z m 50.8125,-46.18311 c 0.72187,-0.28887 1.58438,-0.25335 1.91667,0.0789 0.33229,0.33229 -0.25834,0.56864 -1.3125,0.52522 -1.16495,-0.048 -1.4019,-0.28494 -0.60417,-0.60416 z M 457.5,438 c 0.99549,-1.1 2.03498,-2 2.30998,-2 0.275,0 -0.31449,0.9 -1.30998,2 -0.99549,1.1 -2.03498,2 -2.30998,2 -0.275,0 0.31449,-0.9 1.30998,-2 z M 708,437.62244 c 0,-0.20765 0.7875,-0.99515 1.75,-1.75 1.58606,-1.24387 1.62143,-1.2085 0.37756,0.37756 C 708.82119,437.91575 708,438.44548 708,437.62244 Z m -244,-6 c 0,-0.20765 0.7875,-0.99515 1.75,-1.75 1.58606,-1.24387 1.62143,-1.2085 0.37756,0.37756 C 464.82119,431.91575 464,432.44548 464,431.62244 Z"
         id="path3" />
      <path
         style="fill:#535853"
         d="m 533,782.26473 c -22.57916,-1.18052 -40.03079,-12.19728 -45.47713,-28.70854 -1.96281,-5.95051 -2.2637,-20.18877 -0.56121,-26.55619 3.55075,-13.27999 14.64442,-26.55466 37.51459,-44.88995 17.84665,-14.30786 22.76088,-19.56324 24.56768,-26.27321 1.38863,-5.15695 -0.19827,-9.58649 -3.75412,-10.47895 -10.41543,-2.61411 -27.41344,5.77917 -42.42343,20.94786 -14.02505,14.17332 -22.02373,24.57798 -40.26982,52.38286 -18.38155,28.01131 -36.54181,48.93792 -48.63579,56.04445 -6.49921,3.81899 -17.62332,6.81943 -21.59099,5.82361 -5.07218,-1.27303 -10.90369,-8.31073 -13.30595,-16.05815 -7.16047,-23.09282 -2.97317,-90.84578 9.57929,-154.99852 12.83053,-65.57395 31.28612,-118.45346 52.20737,-149.58612 19.03107,-28.31993 40.90507,-45.68414 63.40313,-50.33124 34.42027,-7.1097 54.74638,8.96639 54.74638,43.29939 0,22.95072 -11.51123,52.07454 -35.72129,90.37611 -17.35897,27.4628 -49.7112,66.31638 -84.71743,101.74186 l -17.29289,17.5 -2.12238,14 c -4.03415,26.61078 -7.27662,59.5 -5.86596,59.5 0.30414,0 3.55267,-5.22423 7.21895,-11.6094 21.88522,-38.11516 43.16849,-67.17215 65.47559,-89.3906 19.74249,-19.66403 37.96819,-31.14735 56.9658,-35.89201 12.69542,-3.17068 26.61551,-2.42313 35.02789,1.8811 13.5024,6.90857 20.73695,25.58309 17.09077,44.11632 -3.5301,17.9431 -16.93389,35.30397 -38.09173,49.33717 -20.36455,13.50704 -33.43039,28.95496 -34.67296,40.99431 -0.67879,6.57681 1.07456,9.98365 6.2513,12.14664 5.02868,2.10111 17.01494,1.80397 23.9866,-0.59463 16.54322,-5.6917 37.1722,-21.88218 53.07752,-41.65744 8.15856,-10.14363 10.20951,-11.73175 14.36337,-11.12209 l 2.74347,0.40265 0.6092,-10.55601 c 2.11767,-36.69413 12.32903,-87.22774 26.33428,-130.32213 16.13383,-49.64409 29.472,-78.07965 48.42352,-103.23388 22.44499,-29.79106 44.74886,-43.47055 68.91638,-42.268 10.76797,0.53579 17.32249,3.2672 23.37963,9.74277 6.11171,6.53392 9.49889,13.67378 10.83194,22.83272 2.82438,19.40544 -9.27886,62.53934 -27.13161,96.69251 -22.04003,42.16361 -56.72454,87.26106 -89.83139,116.80044 -6.90368,6.15976 -14.03752,12.54956 -15.85298,14.19956 -3.21089,2.91824 -3.33315,3.3265 -4.48606,14.98086 -2.71427,27.43757 1.80957,48.37652 12.23579,56.63424 10.56273,8.36584 29.20463,5.229 49.0614,-8.25548 7.8055,-5.30061 34.21167,-30.76622 34.58042,-33.34869 2.14736,-15.03889 7.67199,-37.18336 13.83474,-55.45404 8.87232,-26.30373 17.70826,-41.05265 27.66963,-46.18602 4.82465,-2.48627 14.92226,-3.44721 20.45627,-1.94672 5.26367,1.42719 12.25222,7.7952 12.25222,11.16429 0,1.31897 -2.45004,7.35114 -5.44452,13.40484 -6.30493,12.74613 -8.33152,17.73852 -13.60154,33.50672 -10.59233,31.69287 -14.32675,49.72223 -13.79622,66.60669 0.40494,12.88761 2.6825,18.89537 8.53437,22.51203 14.73031,9.10383 37.35555,-1.09272 62.50189,-28.16783 9.92047,-10.68139 13.27587,-12.64217 19.6212,-11.46599 8.66998,1.60709 13.32501,6.84079 13.39891,15.06455 0.0641,7.13527 -3.05257,11.91713 -16.44627,25.23312 -20.12985,20.01306 -37.59715,30.60806 -58.26782,35.34303 -8.14139,1.86492 -27.38849,1.63253 -34.76438,-0.41975 -15.2663,-4.24773 -28.05475,-15.43374 -33.6755,-29.45585 -1.57492,-3.92896 -2.03075,-3.98507 -5.13581,-0.6322 -3.34279,3.60958 -16.17259,13.25414 -23.46814,17.64173 C 722.84692,771.64 710.90452,776.24604 699,778.54885 c -8.53848,1.65169 -24.45629,1.87389 -30.71823,0.42881 C 650.58183,774.89299 635.71534,759.046 628.90138,737 c -1.27495,-4.125 -2.44118,-7.67935 -2.59163,-7.89856 -0.15045,-0.21921 -4.1795,3.75072 -8.95345,8.82207 -17.55356,18.64706 -43.97845,36.15055 -62.8265,41.61541 -6.96284,2.01883 -15.17228,3.0582 -21.5298,2.72581 z M 680.65024,618 c 27.52204,-32.87791 56.01182,-77.21106 68.41736,-106.46477 8.47247,-19.97906 13.30254,-42.73322 10.93636,-51.52054 -1.43999,-5.34772 -5.57932,-7.40725 -12.34644,-6.14302 -9.23237,1.72479 -17.37463,8.6078 -26.17673,22.12833 -17.40577,26.73626 -40.16783,91.21048 -49.00799,138.81657 -1.36004,7.32412 -2.4728,13.83304 -2.4728,14.46429 0,1.38941 0.38807,0.97836 10.65024,-11.28086 z M 443.70241,595.25 c 27.04701,-32.37157 47.60751,-59.95684 57.19636,-76.73822 15.16739,-26.54438 20.59682,-56.05226 11.67503,-63.45154 -2.55377,-2.11796 -10.67826,-1.67217 -15.93915,0.87457 -6.0172,2.91288 -17.46337,15.164 -23.12944,24.75602 -16.38181,27.73256 -34.08711,76.44414 -41.36645,113.80917 -2.71307,13.92621 -3.29106,17.5 -2.83032,17.5 0.21948,0 6.69677,-7.5375 14.39397,-16.75 z M 831,554.11913 c -15.74813,-2.55587 -23.92973,-16.39244 -19.45899,-32.90869 3.31901,-12.26142 14.84108,-20.65806 30.11926,-21.94924 9.49266,-0.80224 19.17511,1.92081 23.9655,6.73995 4.86971,4.89893 6.2027,8.70536 6.3031,17.99885 0.13932,12.8959 -4.62783,21.79695 -14.57267,27.20961 -3.8168,2.07737 -6.68729,2.7527 -13.3588,3.14288 -4.67357,0.27333 -10.5224,0.16832 -12.9974,-0.23336 z"
         id="path2" />
    </g>
  </g>
</svg>
