<?xml version="1.0" encoding="UTF-8" standalone="no"?>
<!-- Created with Inkscape (http://www.inkscape.org/) -->

<svg
   version="1.1"
   id="svg1"
   width="500"
   height="500"
   viewBox="0 0 500 500"
   xmlns="http://www.w3.org/2000/svg"
   xmlns:svg="http://www.w3.org/2000/svg">
  <defs
     id="defs1" />
  <g
     id="g1">
    <g
       id="g2">
      <path
         style="fill:#f1efeb"
         d="M 0,250 V 0 H 250 500 V 250 500 H 250 0 Z m 300.06576,126.2177 c 1.35208,-2.15156 1.74282,-2.22317 6.82073,-1.25 3.00411,0.57573 19.50966,1.0323 37.31858,1.0323 h 31.93209 l -0.39974,-35.25 c -0.21986,-19.3875 -0.73584,-36.19608 -1.14662,-37.35239 -0.59921,-1.68675 -0.10602,-2.50815 2.49466,-4.15478 C 380.19937,297.27124 427,251.13088 427,250.03249 c 0,-1.33369 -44.97498,-46.09664 -48.8198,-48.58965 -3.54966,-2.30163 -4.18812,-3.17021 -3.58117,-4.87192 0.40625,-1.13901 0.91872,-17.96447 1.13881,-37.38992 l 0.40016,-35.319 -35.319,0.40016 c -19.42545,0.22009 -36.25091,0.73256 -37.38992,1.13881 -1.67072,0.59589 -2.57945,4.7e-4 -4.70238,-3.08117 C 297.27939,120.21891 285.70026,107.925 272.99529,95 l -23.09995,-23.5 -22.77672,23 c -12.52719,12.65 -24.05923,24.94391 -25.62675,27.3198 -2.33827,3.54412 -3.22189,4.18717 -4.92095,3.58117 -1.13901,-0.40625 -17.96447,-0.91872 -37.38992,-1.13881 l -35.319,-0.40016 0.40016,35.319 c 0.22009,19.42545 0.73256,36.25091 1.13881,37.38992 0.6063,1.6999 -0.0353,2.57876 -3.58117,4.90546 -2.37589,1.55899 -14.6698,13.10009 -27.3198,25.64688 l -23,22.81235 23,22.88521 c 12.65,12.58687 24.94391,24.15694 27.3198,25.71128 3.54683,2.32037 4.18763,3.19662 3.58117,4.89698 -0.40625,1.13901 -0.91872,17.96447 -1.13881,37.38992 l -0.40016,35.319 35.319,-0.40016 c 19.42545,-0.22009 36.25091,-0.73256 37.38992,-1.13881 1.67671,-0.59803 2.55245,-0.0115 4.60055,3.08117 1.39129,2.10089 12.81266,14.31123 25.38081,27.13408 l 22.85119,23.31428 24.61402,-24.81428 c 13.53772,-13.64785 25.25944,-25.84132 26.04827,-27.09658 z M 232.33922,389.75 c -9.3973,-9.4875 -18.25127,-19.12708 -19.67547,-21.42129 -6.73185,-10.84413 -8.57131,-25.72929 -4.62661,-37.43896 2.05617,-6.10363 5.96039,-13.15216 7.9746,-14.397 0.60103,-0.37146 3.96649,0.33913 7.4788,1.57908 l 6.38602,2.25445 -3.43028,4.00752 c -5.23667,6.11787 -7.74223,13.75047 -7.18172,21.87749 0.72189,10.4671 3.70714,15.34346 18.23626,29.78871 l 12.57258,12.5 13.57628,-13.75224 13.57627,-13.75223 4.88703,3.5874 C 284.80084,366.556 287,368.60257 287,369.13085 287,370.18417 251.08793,407 250.06046,407 c -0.34937,0 -8.32393,-7.7625 -17.72124,-17.25 z m 10.49628,-29.5 C 234.86291,352.10961 234,350.54344 234,344.21362 234,335.45804 241.24183,328 249.74359,328 254.46184,328 260,330.55815 260,332.73756 c 0,0.7185 1.35,4.28372 3,7.92271 1.65,3.639 3,7.45905 3,8.48901 C 266,350.85086 251.60704,367 250.0905,367 c -0.35428,0 -3.61903,-3.0375 -7.255,-6.75 z M 139,336.25672 c 0,-27.02682 0.7261,-32.30817 5.69773,-41.44268 5.62071,-10.3271 19.8489,-20.18552 30.9174,-21.42203 l 4.88487,-0.54571 2.5,5.75441 c 1.375,3.16492 2.62868,6.06054 2.78595,6.4347 0.15727,0.37416 -2.34588,0.91894 -5.56257,1.21062 -10.49386,0.95155 -20.12235,7.69491 -25.34993,17.75397 -2.17645,4.18798 -2.36348,5.87362 -2.69734,24.31031 l -0.35874,19.8103 19.49484,-0.3103 19.49485,-0.31031 0.98136,6 c 0.53975,3.3 0.77141,6.225 0.5148,6.5 -0.25661,0.275 -12.35481,0.63348 -26.88489,0.79662 L 139,361.09324 Z m 166.02424,23.14019 C 289.21669,355.14903 275.06785,339.53565 273.4007,324.5 l -0.5544,-5 5.75441,-2.5 c 3.16492,-1.375 6.12451,-2.65 6.57685,-2.83333 0.45234,-0.18334 0.82244,1.45249 0.82244,3.63516 0,10.69982 7.31012,21.74785 17.79739,26.89781 5.55438,2.72757 6.20454,2.80887 25.01278,3.12758 l 19.31017,0.32722 -0.31017,-19.4294 -0.31017,-19.42941 6,-1.01599 c 3.3,-0.55879 6.225,-0.81356 6.5,-0.56614 0.275,0.24741 0.63348,12.33809 0.79662,26.86817 L 361.09324,361 335.79662,360.9342 c -18.94745,-0.0493 -26.67097,-0.43513 -30.77238,-1.53728 z M 167,322.96016 c 0,-14.58615 3.10982,-19.84932 13.0476,-22.08219 5.43409,-1.22096 11.03203,0.35551 14.86186,4.18534 4.51749,4.51749 4.77774,8.18015 1.14858,16.16473 C 194.37612,324.92847 193,328.59694 193,329.38022 193,331.72166 187.29683,333 176.85078,333 H 167 Z m 142.5,8.01555 c -5.80416,-2.93505 -7.86271,-6.30828 -8.33022,-13.65023 -0.4733,-7.43315 1.85392,-12.15978 7.24711,-14.71902 4.42161,-2.09819 4.94011,-2.05589 11.22089,0.91539 2.93192,1.38702 6.6616,2.78803 8.28817,3.11334 4.00439,0.80088 5.07405,4.2822 5.07405,16.51403 V 333 l -9.75,-7.9e-4 c -7.80038,-6.3e-4 -10.54984,-0.40525 -13.75,-2.0235 z M 235,306.42107 C 217.372,301.78231 202.63511,288.39286 195.46401,270.5 c -2.34659,-5.85506 -2.87758,-8.88097 -3.24638,-18.5 -0.401,-10.45863 -0.20081,-12.21448 2.2107,-19.39015 3.69565,-10.99674 6.8393,-16.02765 15.06545,-24.10985 10.59842,-10.41296 21.94917,-15.38767 37.05607,-16.24062 23.61758,-1.33346 43.99568,10.11022 54.92433,30.84373 17.56549,33.32474 -1.28442,74.74567 -37.97418,83.44474 -7.62275,1.80734 -21.38266,1.74613 -28.5,-0.12678 z m 31.26825,-20.6716 c 7.35362,-3.38539 15.49598,-11.51059 19.29013,-19.24947 2.68777,-5.48223 2.94162,-6.9061 2.94162,-16.5 0,-9.47152 -0.2738,-11.05755 -2.79527,-16.19219 -4.1442,-8.43912 -10.71061,-15.19308 -18.49888,-19.02724 C 260.9524,211.70201 259.8929,211.5 250,211.5 c -9.8929,0 -10.9524,0.20201 -17.20585,3.28057 -7.78827,3.83416 -14.35468,10.58812 -18.49888,19.02724 C 211.7738,238.94245 211.5,240.52848 211.5,250 c 0,9.56787 0.2581,11.02566 2.90735,16.42129 4.95696,10.09563 12.73275,17.15171 22.89249,20.77363 7.79412,2.77858 21.25175,2.10708 28.96841,-1.44545 z m -20.97171,-11.85218 c -18.45815,-3.41242 -26.15198,-26.08961 -13.5748,-40.01105 5.34137,-5.91225 10.21648,-8.06271 18.27826,-8.06271 10.35464,0 18.74216,5.52846 22.6777,14.94753 1.85805,4.44692 1.87229,13.97687 0.0275,18.3921 -4.43701,10.61925 -16.0112,16.84122 -27.40865,14.73413 z m 85.34312,18.01997 c -6.17871,-2.12526 -9.73779,-4.04997 -13.30134,-7.19322 l -2.16167,-1.90672 2.4019,-5.15866 c 1.32105,-2.83726 2.40631,-5.76778 2.41168,-6.51225 0.006,-0.81302 1.41865,-0.11658 3.53757,1.74386 6.81735,5.98571 11.12541,7.58454 20.4722,7.59773 12.33125,0.0174 16.336,-2.23387 32,-17.98882 l 12.5,-12.57258 -13.7398,-13.56402 -13.73981,-13.56402 3.2243,-4.64928 c 1.77337,-2.5571 3.32973,-4.82274 3.4586,-5.03474 0.7063,-1.16199 7.59333,4.96474 22.70324,20.19688 l 16.90653,17.0433 -18.0184,17.7358 c -18.51878,18.22833 -22.44421,21.09896 -33.22616,24.29796 -7.47078,2.21657 -18.1923,2.01789 -25.42884,-0.47122 z M 125.30192,282.0994 C 122.11086,279.40408 113.425,271.06087 106,263.55894 l -13.5,-13.63987 18.16115,-17.96663 c 16.18744,-16.01405 18.99318,-18.36176 25.81702,-21.60239 13.74063,-6.5254 30.13719,-5.66813 42.64831,2.22979 2.18298,1.37806 4.21504,3.14656 4.51567,3.93001 0.30064,0.78344 -0.48881,4.09473 -1.75433,7.35841 l -2.30095,5.93396 -3.96409,-3.39311 c -8.43472,-7.21981 -20.58366,-9.25707 -31.33527,-5.25462 -4.92543,1.83357 -7.7984,4.14017 -19.28751,15.48526 l -13.5,13.33076 13.63395,13.57548 13.63396,13.57547 -3.13396,4.881 c -1.72367,2.68455 -3.44809,4.90722 -3.83203,4.93927 -0.38395,0.032 -3.30895,-2.147 -6.5,-4.84233 z M 147.5,264.10842 c -1.65,-1.03626 -5.68646,-4.63512 -8.9699,-7.99748 l -5.96991,-6.11338 6.46991,-6.57366 C 146.87973,235.44838 149.45752,234 155.80246,234 c 8.84007,0 16.22856,7.2677 16.1621,15.89788 -0.0545,7.07799 -1.56515,8.80982 -11.03425,12.64978 -4.63667,1.88028 -8.88031,3.42458 -9.43031,3.43178 -0.55,0.007 -2.35,-0.83476 -4,-1.87102 z m 190.00223,0.31618 C 331.00887,261.03886 328,256.47134 328,250 c 0,-4.88603 2.40148,-10 4.69592,-10 0.90451,0 4.70422,-1.41028 8.44379,-3.13397 8.48788,-3.91231 9.80838,-3.4917 19.40791,6.18196 l 6.89667,6.94992 -6.47214,6.57593 c -3.55968,3.61675 -7.6873,7.21722 -9.17249,8.00104 -3.55685,1.87715 -10.55008,1.80364 -14.29743,-0.15028 z M 317,221.30537 c -1.375,-3.11327 -2.62868,-5.96662 -2.78595,-6.34078 -0.15727,-0.37416 2.4238,-0.926 5.73571,-1.22632 11.07532,-1.00427 20.00548,-7.35639 24.93744,-17.73827 2.49024,-5.24202 2.62815,-6.40576 2.94002,-24.81017 l 0.32722,-19.31017 -19.48075,0.31017 -19.48075,0.31017 -0.98136,-6 c -0.53975,-3.3 -0.77141,-6.225 -0.5148,-6.5 0.25661,-0.275 12.35481,-0.63348 26.88489,-0.79662 L 361,138.90676 v 24.83652 c 0,27.04553 -0.79508,32.81605 -5.66718,41.13133 -5.75013,9.81381 -13.94749,16.62683 -24.1342,20.05848 -9.94079,3.34881 -11.26704,3.00996 -14.19862,-3.62772 z m -4.72747,-22.49179 c -8.75196,-1.90954 -13.20278,-10.10233 -9.47078,-17.43321 1.08648,-2.1342 2.54037,-5.77144 3.23086,-8.08275 C 307.64039,167.91582 310.12954,167 323.14922,167 H 333 l -0.004,10.25 c -0.003,8.68329 -0.32821,10.78227 -2.12658,13.73232 -4.24831,6.96892 -10.4944,9.59916 -18.59715,7.83126 z m -129.57546,-1.24433 c -0.99161,-0.75192 -4.45565,-2.20011 -7.69786,-3.21819 -4.09886,-1.28708 -6.21551,-2.55093 -6.94708,-4.14811 C 167.47346,188.93957 167,183.20207 167,177.45295 V 167 h 9.53212 c 10.74545,0 14.46887,1.15987 18.92159,5.89419 2.50008,2.65819 3.01661,4.12824 3.36323,9.57191 0.48755,7.65678 -1.78215,12.34045 -7.23383,14.92744 -4.09451,1.94297 -6.49291,1.9904 -8.88604,0.17571 z m -43.05945,-6.79121 C 139.30195,189.52512 139.02116,177.3625 139.01365,163.75 L 139,139 h 24.7899 c 26.27307,0 31.77439,0.69642 40.44541,5.12005 6.48602,3.30892 15.3955,12.86646 18.82422,20.19346 3.2467,6.93804 5.04307,16.68649 3.07486,16.68649 -0.62931,0 -3.47621,1.125 -6.32645,2.5 -2.85023,1.375 -5.26053,2.5 -5.3562,2.5 -0.0957,0 -0.41114,-2.61566 -0.70103,-5.81257 -0.97729,-10.77771 -8.13667,-20.73694 -18.25071,-25.38808 -4.56706,-2.10025 -6.67203,-2.32768 -24.31017,-2.62657 l -19.31017,-0.32722 0.31017,19.55464 0.31017,19.55463 -4.5,0.60665 c -2.475,0.33365 -5.23172,0.80643 -6.12604,1.05062 -1.05804,0.2889 -1.83922,-0.35176 -2.23634,-1.83406 z m 136.28948,-9.07964 -5.57291,-2.1984 3.84409,-5 c 4.94882,-6.43692 7.21553,-13.99985 6.51416,-21.73462 C 279.84547,143.20425 276.49907,137.91906 262.49918,124 l -12.57258,-12.5 -13.57628,13.75224 -13.57627,13.75223 -4.88703,-3.5874 C 215.19916,133.444 213,131.39337 213,130.86013 c 0,-0.53325 8.32113,-9.38242 18.4914,-19.66483 L 249.9828,92.5 l 18.0157,18.16115 c 16.18983,16.32055 18.39503,18.95561 21.7586,26 3.62345,7.58868 3.74275,8.18991 3.73821,18.83885 -0.004,9.86613 -0.28434,11.59788 -2.71767,16.80023 -3.33023,7.11987 -6.52515,11.71674 -8.09573,11.64817 -0.65005,-0.0284 -3.68972,-1.04087 -6.75481,-2.25 z m -33.11779,-11.42064 c -1.47988,-0.91796 -2.97377,-2.81849 -3.31974,-4.22339 -0.34598,-1.4049 -1.776,-5.12376 -3.17782,-8.26413 -1.54853,-3.46903 -2.32068,-6.60855 -1.96756,-8 0.31966,-1.25963 3.97212,-5.65311 8.11656,-9.76328 l 7.53536,-7.47304 6.61095,6.47304 C 264.0191,146.28438 266,149.9309 266,156.31784 c 0,5.13198 -4.12044,11.65884 -8.93062,14.14628 -3.88132,2.00711 -10.87116,1.91576 -14.26007,-0.18636 z"
         id="path8" />
      <path
         style="fill:#d3d1cd"
         d="M 235.4866,413.75 221.5,399.5 235.75,413.4866 C 248.9876,426.47952 250.45289,428 249.7366,428 c -0.14487,0 -6.55737,-6.4125 -14.25,-14.25 z m -20.61416,-20.5 c -1.24387,-1.58606 -1.2085,-1.62143 0.37756,-0.37756 0.9625,0.75485 1.75,1.54235 1.75,1.75 0,0.82304 -0.82119,0.29331 -2.12756,-1.37244 z m -5,-5 c -1.24387,-1.58606 -1.2085,-1.62143 0.37756,-0.37756 0.9625,0.75485 1.75,1.54235 1.75,1.75 0,0.82304 -0.82119,0.29331 -2.12756,-1.37244 z M 186.75,375.33772 c 0.6875,-0.27741 1.8125,-0.27741 2.5,0 0.6875,0.27741 0.125,0.50439 -1.25,0.50439 -1.375,0 -1.9375,-0.22698 -1.25,-0.50439 z m 124,0 c 0.6875,-0.27741 1.8125,-0.27741 2.5,0 0.6875,0.27741 0.125,0.50439 -1.25,0.50439 -1.375,0 -1.9375,-0.22698 -1.25,-0.50439 z M 243.4687,361.75 237.5,355.5 l 6.25,5.9687 c 3.4375,3.28278 6.25,6.09528 6.25,6.25 0,0.7389 -0.98689,-0.16298 -6.5313,-5.9687 z M 257,360.5 c 1.29175,-1.375 2.57363,-2.5 2.84863,-2.5 0.275,0 -0.55688,1.125 -1.84863,2.5 -1.29175,1.375 -2.57363,2.5 -2.84863,2.5 -0.275,0 0.55688,-1.125 1.84863,-2.5 z m 20.87244,0.75 c -1.24387,-1.58606 -1.2085,-1.62143 0.37756,-0.37756 1.66575,1.30637 2.19548,2.12756 1.37244,2.12756 -0.20765,0 -0.99515,-0.7875 -1.75,-1.75 z M 205.15789,345 c 0,-1.375 0.22698,-1.9375 0.50439,-1.25 0.27741,0.6875 0.27741,1.8125 0,2.5 -0.27741,0.6875 -0.50439,0.125 -0.50439,-1.25 z m 27.92106,-0.58333 c 0.048,-1.16495 0.28494,-1.4019 0.60416,-0.60417 0.28887,0.72187 0.25335,1.58438 -0.0789,1.91667 -0.3323,0.33229 -0.56864,-0.25834 -0.52522,-1.3125 z M 300.19495,316.5 c 0.0204,-1.65 0.2445,-2.20394 0.49804,-1.23097 0.25354,0.97297 0.23687,2.32297 -0.0371,3 -0.27393,0.67703 -0.48137,-0.11903 -0.46099,-1.76903 z m -84.46162,-0.62409 c 0.67834,-0.68342 1.48524,-0.99067 1.79313,-0.68278 0.30789,0.30789 -0.24711,0.86705 -1.23333,1.24258 -1.4252,0.54268 -1.54006,0.42782 -0.5598,-0.5598 z M 98.488278,276.75 82.5,260.5 98.75,276.48828 C 113.84665,291.34178 115.4523,293 114.73828,293 c -0.14395,0 -7.45645,-7.3125 -16.250002,-16.25 z m 27.384162,6.5 c -1.24387,-1.58606 -1.2085,-1.62143 0.37756,-0.37756 0.9625,0.75485 1.75,1.54235 1.75,1.75 0,0.82304 -0.82119,0.29331 -2.12756,-1.37244 z m 16,-23 c -1.24387,-1.58606 -1.2085,-1.62143 0.37756,-0.37756 0.9625,0.75485 1.75,1.54235 1.75,1.75 0,0.82304 -0.82119,0.29331 -2.12756,-1.37244 z m -62.948126,-3 L 76.5,254.5 l 2.75,2.42431 C 81.820289,259.1902 82.458588,260 81.674314,260 c -0.179127,0 -1.416627,-1.2375 -2.75,-2.75 z m -5.4632,-5.29297 c -1.819715,-2.01076 -1.771155,-2.11717 3.080418,-6.75 l 4.92928,-4.70703 -4.415925,4.72179 c -4.329267,4.62912 -4.379906,4.76159 -2.580419,6.75 1.009529,1.11551 1.610507,2.02821 1.335507,2.02821 -0.275,0 -1.331987,-0.91934 -2.348861,-2.04297 z M 191.19495,249.5 c 0.0204,-1.65 0.2445,-2.20394 0.49804,-1.23097 0.25354,0.97297 0.23687,2.32297 -0.0371,3 -0.27393,0.67703 -0.48137,-0.11903 -0.46099,-1.76903 z m 116.884,0.91667 c 0.048,-1.16495 0.28494,-1.4019 0.60416,-0.60417 0.28887,0.72187 0.25335,1.58437 -0.0789,1.91667 -0.33229,0.33229 -0.56864,-0.25834 -0.52522,-1.3125 z m 19,-1 c 0.048,-1.16495 0.28494,-1.4019 0.60416,-0.60417 0.28887,0.72187 0.25335,1.58437 -0.0789,1.91667 -0.33229,0.33229 -0.56864,-0.25834 -0.52522,-1.3125 z M 134,247.5 c 1.29175,-1.375 2.57363,-2.5 2.84863,-2.5 0.275,0 -0.55688,1.125 -1.84863,2.5 -1.29175,1.375 -2.57363,2.5 -2.84863,2.5 -0.275,0 0.55688,-1.125 1.84863,-2.5 z m 140.07895,0.91667 c 0.048,-1.16495 0.28494,-1.4019 0.60416,-0.60417 0.28887,0.72187 0.25335,1.58437 -0.0789,1.91667 -0.33229,0.33229 -0.56864,-0.25834 -0.52522,-1.3125 z M 402.94617,246.25 399.5,242.5 l 3.75,3.44617 c 2.0625,1.89539 3.75,3.58289 3.75,3.75 0,0.76362 -0.84622,0.0443 -4.05383,-3.44617 z M 82,239.62244 c 0,-0.20765 0.7875,-0.99515 1.75,-1.75 1.586056,-1.24387 1.621426,-1.2085 0.377555,0.37756 C 82.821186,239.91575 82,240.44548 82,239.62244 Z M 100,221.5 c 7.96077,-7.975 14.69913,-14.5 14.97413,-14.5 0.275,0 -6.01336,6.525 -13.97413,14.5 -7.960772,7.975 -14.69913,14.5 -14.97413,14.5 -0.275,0 6.013358,-6.525 13.97413,-14.5 z m 131,12.12244 c 0,-0.20765 0.7875,-0.99515 1.75,-1.75 1.58606,-1.24387 1.62143,-1.2085 0.37756,0.37756 C 231.82119,233.91575 231,234.44548 231,233.62244 Z M 402.87244,225.25 c -1.24387,-1.58606 -1.2085,-1.62143 0.37756,-0.37756 0.9625,0.75485 1.75,1.54235 1.75,1.75 0,0.82304 -0.82119,0.29331 -2.12756,-1.37244 z M 392,214.5 c -4.09747,-4.125 -7.22494,-7.5 -6.94994,-7.5 0.275,0 3.85247,3.375 7.94994,7.5 4.09747,4.125 7.22494,7.5 6.94994,7.5 -0.275,0 -3.85247,-3.375 -7.94994,-7.5 z m -208.43571,1.79313 c -0.54268,-1.4252 -0.42782,-1.54006 0.5598,-0.5598 0.68342,0.67834 0.99067,1.48524 0.68278,1.79313 -0.30789,0.30789 -0.86705,-0.24711 -1.24258,-1.23333 z M 372.87244,216.25 c -1.24387,-1.58606 -1.2085,-1.62143 0.37756,-0.37756 1.66575,1.30637 2.19548,2.12756 1.37244,2.12756 -0.20765,0 -0.99515,-0.7875 -1.75,-1.75 z M 347,215.62244 c 0,-0.20765 0.7875,-0.99515 1.75,-1.75 1.58606,-1.24387 1.62143,-1.2085 0.37756,0.37756 C 347.82119,215.91575 347,216.44548 347,215.62244 Z M 199.19495,183.5 c 0.0204,-1.65 0.2445,-2.20394 0.49804,-1.23097 0.25354,0.97297 0.23687,2.32297 -0.0371,3 -0.27393,0.67703 -0.48137,-0.11903 -0.46099,-1.76903 z m -4.78996,-11.75 -1.90499,-2.25 2.25,1.90499 c 2.11444,1.79022 2.70524,2.59501 1.90499,2.59501 -0.18976,0 -1.20226,-1.0125 -2.25,-2.25 z m 48.83178,-33.23742 c 6.57207,-6.79726 6.77988,-6.9206 8.5,-5.04486 1.68839,1.84113 1.68665,1.86491 -0.041,0.5601 -1.61795,-1.22198 -2.49536,-0.70123 -8.5,5.04486 L 236.5,145.48019 Z M 220.87244,138.25 c -1.24387,-1.58606 -1.2085,-1.62143 0.37756,-0.37756 1.66575,1.30637 2.19548,2.12756 1.37244,2.12756 -0.20765,0 -0.99515,-0.7875 -1.75,-1.75 z M 186.75,124.33772 c 0.6875,-0.27741 1.8125,-0.27741 2.5,0 0.6875,0.27741 0.125,0.50439 -1.25,0.50439 -1.375,0 -1.9375,-0.22698 -1.25,-0.50439 z m 124,0 c 0.6875,-0.27741 1.8125,-0.27741 2.5,0 0.6875,0.27741 0.125,0.50439 -1.25,0.50439 -1.375,0 -1.9375,-0.22698 -1.25,-0.50439 z m -82.00814,-31.329631 21.24185,-21.485917 3.25815,3.466102 3.25814,3.466102 -3.27758,-2.940702 -3.27758,-2.940702 L 228.72242,93.533489 207.5,114.49401 Z M 266.87244,89.25 C 265.62857,87.663944 265.66394,87.628574 267.25,88.872445 268.91575,90.178814 269.44548,91 268.62244,91 c -0.20765,0 -0.99515,-0.7875 -1.75,-1.75 z m -6.43535,-6.5 -2.93709,-3.25 3.25,2.937091 C 263.77946,85.174872 264.45965,86 263.68709,86 c -0.1721,0 -1.6346,-1.4625 -3.25,-3.25 z"
         id="path7" />
      <path
         style="fill:#b1afaa"
         d="m 253.5,384 c 2.14824,-2.2 4.1309,-4 4.4059,-4 0.275,0 -1.25766,1.8 -3.4059,4 -2.14824,2.2 -4.1309,4 -4.4059,4 -0.275,0 1.25766,-1.8 3.4059,-4 z m 9,-9 c 2.14824,-2.2 4.1309,-4 4.4059,-4 0.275,0 -1.25766,1.8 -3.4059,4 -2.14824,2.2 -4.1309,4 -4.4059,4 -0.275,0 1.25766,-1.8 3.4059,-4 z m -27.06291,-1.25 -2.93709,-3.25 3.25,2.93709 c 3.02946,2.73778 3.70965,3.56291 2.93709,3.56291 -0.1721,0 -1.6346,-1.4625 -3.25,-3.25 z M 252,365.5 c 1.29175,-1.375 2.57363,-2.5 2.84863,-2.5 0.275,0 -0.55688,1.125 -1.84863,2.5 -1.29175,1.375 -2.57363,2.5 -2.84863,2.5 -0.275,0 0.55688,-1.125 1.84863,-2.5 z m 32.40499,-17.75 -1.90499,-2.25 2.25,1.90499 c 1.2375,1.04774 2.25,2.06024 2.25,2.25 0,0.80025 -0.80479,0.20945 -2.59501,-1.90499 z m -79.32604,-6.33333 c 0.048,-1.16495 0.28494,-1.4019 0.60416,-0.60417 0.28887,0.72187 0.25335,1.58438 -0.0789,1.91667 -0.3323,0.33229 -0.56864,-0.25834 -0.52522,-1.3125 z M 166.35496,324.5 c -0.003,-4.95 0.16605,-7.10108 0.37577,-4.78017 0.20972,2.3209 0.21222,6.3709 0.006,9 -0.20667,2.62909 -0.37827,0.73017 -0.38131,-4.21983 z m 167,0 c -0.003,-4.95 0.16605,-7.10108 0.37577,-4.78017 0.20972,2.3209 0.21222,6.3709 0.006,9 C 333.5296,331.34892 333.358,329.45 333.35496,324.5 Z M 228.5,322 c 0.99549,-1.1 2.03498,-2 2.30998,-2 0.275,0 -0.31449,0.9 -1.30998,2 -0.99549,1.1 -2.03498,2 -2.30998,2 -0.275,0 0.31449,-0.9 1.30998,-2 z m 43.57895,-1.58333 c 0.048,-1.16495 0.28494,-1.4019 0.60416,-0.60417 0.28887,0.72187 0.25335,1.58438 -0.0789,1.91667 -0.33229,0.33229 -0.56864,-0.25834 -0.52522,-1.3125 z M 375.15789,314 c 0,-1.375 0.22698,-1.9375 0.50439,-1.25 0.27741,0.6875 0.27741,1.8125 0,2.5 -0.27741,0.6875 -0.50439,0.125 -0.50439,-1.25 z m -251.07894,-0.58333 c 0.048,-1.16495 0.28494,-1.4019 0.60416,-0.60417 0.28887,0.72187 0.25335,1.58438 -0.0789,1.91667 -0.3323,0.33229 -0.56864,-0.25834 -0.52522,-1.3125 z M 245.75,308.33772 c 0.6875,-0.27741 1.8125,-0.27741 2.5,0 0.6875,0.27741 0.125,0.50439 -1.25,0.50439 -1.375,0 -1.9375,-0.22698 -1.25,-0.50439 z m 6,0 c 0.6875,-0.27741 1.8125,-0.27741 2.5,0 0.6875,0.27741 0.125,0.50439 -1.25,0.50439 -1.375,0 -1.9375,-0.22698 -1.25,-0.50439 z m 90.0625,-14.02083 c 0.72187,-0.28887 1.58438,-0.25335 1.91667,0.0789 0.33229,0.33229 -0.25834,0.56864 -1.3125,0.52522 -1.16495,-0.048 -1.4019,-0.28494 -0.60417,-0.60416 z m 4,0 c 0.72187,-0.28887 1.58438,-0.25335 1.91667,0.0789 0.33229,0.33229 -0.25834,0.56864 -1.3125,0.52522 -1.16495,-0.048 -1.4019,-0.28494 -0.60417,-0.60416 z M 149,287.68709 c 0,-0.1721 1.4625,-1.6346 3.25,-3.25 l 3.25,-2.93709 -2.93709,3.25 C 149.82513,287.77946 149,288.45965 149,287.68709 Z m -10.43571,-9.98022 c 0.37553,-0.98622 0.93469,-1.54122 1.24258,-1.23333 0.30789,0.30789 6.4e-4,1.11479 -0.68278,1.79313 -0.98762,0.98026 -1.10248,0.8654 -0.5598,-0.5598 z M 368.5,269 c 2.70865,-2.75 5.14982,-5 5.42482,-5 0.275,0 -1.71617,2.25 -4.42482,5 -2.70865,2.75 -5.14982,5 -5.42482,5 -0.275,0 1.71617,-2.25 4.42482,-5 z m -189.6875,3.31689 c 0.72187,-0.28887 1.58437,-0.25335 1.91667,0.0789 0.33229,0.33229 -0.25834,0.56864 -1.3125,0.52522 -1.16495,-0.048 -1.4019,-0.28494 -0.60417,-0.60416 z M 356,261.62244 c 0,-0.20765 0.7875,-0.99515 1.75,-1.75 1.58606,-1.24387 1.62143,-1.2085 0.37756,0.37756 C 356.82119,261.91575 356,262.44548 356,261.62244 Z M 379.5,258 c 2.14824,-2.2 4.1309,-4 4.4059,-4 0.275,0 -1.25766,1.8 -3.4059,4 -2.14824,2.2 -4.1309,4 -4.4059,4 -0.275,0 1.25766,-1.8 3.4059,-4 z m -259.57569,0.25 -2.42431,-2.75 2.75,2.42431 c 1.5125,1.33338 2.75,2.57088 2.75,2.75 0,0.78428 -0.8098,0.14598 -3.07569,-2.42431 z m 243.53062,-3.98505 3.92178,-4.23506 -2.41015,-2.76494 -2.41015,-2.76495 2.95308,2.75401 2.95308,2.75401 -4.46472,4.24599 -4.46471,4.24599 z m -172.37598,-0.84828 c 0.048,-1.16495 0.28494,-1.4019 0.60416,-0.60417 0.28887,0.72187 0.25335,1.58437 -0.0789,1.91667 -0.3323,0.33229 -0.56864,-0.25834 -0.52522,-1.3125 z m 117,0 c 0.048,-1.16495 0.28494,-1.4019 0.60416,-0.60417 0.28887,0.72187 0.25335,1.58437 -0.0789,1.91667 -0.33229,0.33229 -0.56864,-0.25834 -0.52522,-1.3125 z M 385.87244,248.25 c -1.24387,-1.58606 -1.2085,-1.62143 0.37756,-0.37756 0.9625,0.75485 1.75,1.54235 1.75,1.75 0,0.82304 -0.82119,0.29331 -2.12756,-1.37244 z m -194.79349,-2.83333 c 0.048,-1.16495 0.28494,-1.4019 0.60416,-0.60417 0.28887,0.72187 0.25335,1.58437 -0.0789,1.91667 -0.3323,0.33229 -0.56864,-0.25834 -0.52522,-1.3125 z M 358.43709,240.75 355.5,237.5 l 3.25,2.93709 c 1.7875,1.6154 3.25,3.0779 3.25,3.25 0,0.77256 -0.82513,0.0924 -3.56291,-2.93709 z m -181.0321,-12 -1.90499,-2.25 2.25,1.90499 c 2.11444,1.79022 2.70524,2.59501 1.90499,2.59501 -0.18976,0 -1.20226,-1.0125 -2.25,-2.25 z m 142.40751,-1.43311 c 0.72187,-0.28887 1.58438,-0.25335 1.91667,0.0789 0.33229,0.33229 -0.25834,0.56864 -1.3125,0.52522 -1.16495,-0.048 -1.4019,-0.28494 -0.60417,-0.60416 z M 274.87244,220.25 c -1.24387,-1.58606 -1.2085,-1.62143 0.37756,-0.37756 0.9625,0.75485 1.75,1.54235 1.75,1.75 0,0.82304 -0.82119,0.29331 -2.12756,-1.37244 z M 152.8125,205.31689 c 0.72187,-0.28887 1.58437,-0.25335 1.91667,0.0789 0.33229,0.33229 -0.25834,0.56864 -1.3125,0.52522 -1.16495,-0.048 -1.4019,-0.28494 -0.60417,-0.60416 z m 4,0 c 0.72187,-0.28887 1.58437,-0.25335 1.91667,0.0789 0.33229,0.33229 -0.25834,0.56864 -1.3125,0.52522 -1.16495,-0.048 -1.4019,-0.28494 -0.60417,-0.60416 z M 245.75,191.33772 c 0.6875,-0.27741 1.8125,-0.27741 2.5,0 0.6875,0.27741 0.125,0.50439 -1.25,0.50439 -1.375,0 -1.9375,-0.22698 -1.25,-0.50439 z m 6,0 c 0.6875,-0.27741 1.8125,-0.27741 2.5,0 0.6875,0.27741 0.125,0.50439 -1.25,0.50439 -1.375,0 -1.9375,-0.22698 -1.25,-0.50439 z m -127.67105,-4.92105 c 0.048,-1.16495 0.28494,-1.4019 0.60416,-0.60417 0.28887,0.72187 0.25335,1.58437 -0.0789,1.91667 -0.3323,0.33229 -0.56864,-0.25834 -0.52522,-1.3125 z m 251,0 c 0.048,-1.16495 0.28494,-1.4019 0.60416,-0.60417 0.28887,0.72187 0.25335,1.58437 -0.0789,1.91667 -0.33229,0.33229 -0.56864,-0.25834 -0.52522,-1.3125 z M 166.35496,175.5 c -0.003,-4.95 0.16605,-7.10108 0.37577,-4.78017 0.20972,2.3209 0.21222,6.3709 0.006,9 -0.20667,2.62909 -0.37827,0.73017 -0.38131,-4.21983 z m 167,0 c -0.003,-4.95 0.16605,-7.10108 0.37577,-4.78017 0.20972,2.3209 0.21222,6.3709 0.006,9 C 333.5296,182.34892 333.358,180.45 333.35496,175.5 Z M 270.5,178 c 0.99549,-1.1 2.03498,-2 2.30998,-2 0.275,0 -0.31449,0.9 -1.30998,2 -0.99549,1.1 -2.03498,2 -2.30998,2 -0.275,0 0.31449,-0.9 1.30998,-2 z m 23.69495,-22.5 c 0.0204,-1.65 0.2445,-2.20394 0.49804,-1.23097 0.25354,0.97297 0.23687,2.32297 -0.0371,3 -0.27393,0.67703 -0.48137,-0.11903 -0.46099,-1.76903 z m -25.742,-24.75 -3.95295,-4.25 4.25,3.95295 c 3.95246,3.6762 4.70953,4.54705 3.95295,4.54705 -0.16338,0 -2.07588,-1.9125 -4.25,-4.25 z m -16.04796,-16 -1.90499,-2.25 2.25,1.90499 c 2.11444,1.79022 2.70524,2.59501 1.90499,2.59501 -0.18976,0 -1.20226,-1.0125 -2.25,-2.25 z"
         id="path6" />
      <path
         style="fill:#a09e99"
         d="M 245.45295,403.75 241.5,399.5 l 4.25,3.95295 c 3.95246,3.6762 4.70953,4.54705 3.95295,4.54705 -0.16338,0 -2.07588,-1.9125 -4.25,-4.25 z m 1.47136,-18.5 -2.42431,-2.75 2.75,2.42431 c 2.57029,2.26589 3.20859,3.07569 2.42431,3.07569 -0.17912,0 -1.41662,-1.2375 -2.75,-2.75 z m -25.05187,-5 c -1.24387,-1.58606 -1.2085,-1.62143 0.37756,-0.37756 0.9625,0.75485 1.75,1.54235 1.75,1.75 0,0.82304 -0.82119,0.29331 -2.12756,-1.37244 z m -97.41931,-5.51154 c -0.26625,-0.69385 -0.35756,-14.53135 -0.20291,-30.75 L 124.5314,314.5 l 0.2343,30.23512 0.2343,30.23512 29.75,0.28034 29.75,0.28033 -29.78138,0.23455 c -23.2217,0.18288 -29.88802,-0.0433 -30.26549,-1.027 z m 220.78201,0.51977 29.73514,-0.28795 0.28718,-29.23514 0.28718,-29.23514 -0.0223,29.5 -0.0223,29.5 -30,0.0231 -30,0.0231 z M 229.92431,368.25 227.5,365.5 l 2.75,2.42431 c 2.57029,2.26589 3.20859,3.07569 2.42431,3.07569 -0.17912,0 -1.41662,-1.2375 -2.75,-2.75 z m -91.47505,-7.52164 c -0.26839,-0.6994 -0.35789,-11.6119 -0.19889,-24.25 l 0.2891,-22.97836 0.23026,23.73157 0.23027,23.73157 23.25,0.28778 23.25,0.28778 -23.28138,0.23065 c -18.08411,0.17916 -23.39032,-0.0532 -23.76936,-1.04099 z m 199.78235,0.5309 22.73162,-0.29603 0.29664,-22.98216 0.29665,-22.98216 -0.0283,23.25055 L 361.5,361.5 l -23,0.0276 -23,0.0276 z m -185.78945,-14.5494 c -0.27229,-0.70958 -0.35839,-8.47208 -0.19133,-17.25 l 0.30376,-15.95986 0.2227,16.72582 0.22271,16.72582 16.75,0.30006 16.75,0.30005 -16.78138,0.22413 c -12.94524,0.17289 -16.89456,-0.0708 -17.27646,-1.06602 z m 178.03281,0.55347 16.47689,-0.31147 0.31147,-16.47689 0.31147,-16.4769 -0.0374,16.75097 L 347.5,347.5 l -16.75096,0.0374 -16.75097,0.0374 z M 171.75,333.26276 c 2.8875,-0.202 7.6125,-0.202 10.5,0 2.8875,0.202 0.525,0.36728 -5.25,0.36728 -5.775,0 -8.1375,-0.16528 -5.25,-0.36728 z m 148.53017,9.7e-4 c 2.6291,-0.20668 6.6791,-0.20418 9,0.006 2.32091,0.20972 0.16983,0.37882 -4.78017,0.37577 -4.95,-0.003 -6.84892,-0.17464 -4.21983,-0.38131 z m 27.53233,-24.94684 c 0.72187,-0.28887 1.58438,-0.25335 1.91667,0.0789 0.33229,0.33229 -0.25834,0.56864 -1.3125,0.52522 -1.16495,-0.048 -1.4019,-0.28494 -0.60417,-0.60416 z M 118.87244,277.25 c -1.24387,-1.58606 -1.2085,-1.62143 0.37756,-0.37756 0.9625,0.75485 1.75,1.54235 1.75,1.75 0,0.82304 -0.82119,0.29331 -2.12756,-1.37244 z m 12.05187,-8 -2.42431,-2.75 2.75,2.42431 c 2.57029,2.26589 3.20859,3.07569 2.42431,3.07569 -0.17912,0 -1.41662,-1.2375 -2.75,-2.75 z m 199.94813,-9 c -1.24387,-1.58606 -1.2085,-1.62143 0.37756,-0.37756 0.9625,0.75485 1.75,1.54235 1.75,1.75 0,0.82304 -0.82119,0.29331 -2.12756,-1.37244 z m -216.43535,-7.5 -2.93709,-3.25 3.25,2.93709 c 1.7875,1.6154 3.25,3.0779 3.25,3.25 0,0.77256 -0.82513,0.0924 -3.56291,-2.93709 z M 385.5,252 c 0.99549,-1.1 2.03498,-2 2.30998,-2 0.275,0 -0.31449,0.9 -1.30998,2 -0.99549,1.1 -2.03498,2 -2.30998,2 -0.275,0 0.31449,-0.9 1.30998,-2 z m -77.42105,-6.58333 c 0.048,-1.16495 0.28494,-1.4019 0.60416,-0.60417 0.28887,0.72187 0.25335,1.58437 -0.0789,1.91667 -0.33229,0.33229 -0.56864,-0.25834 -0.52522,-1.3125 z M 166.87244,238.25 c -1.24387,-1.58606 -1.2085,-1.62143 0.37756,-0.37756 0.9625,0.75485 1.75,1.54235 1.75,1.75 0,0.82304 -0.82119,0.29331 -2.12756,-1.37244 z m 207.07373,-2 -3.44617,-3.75 3.75,3.44617 c 3.49042,3.20761 4.20979,4.05383 3.44617,4.05383 -0.16711,0 -1.85461,-1.6875 -3.75,-3.75 z M 132.5,229 c 0.99549,-1.1 2.03498,-2 2.30998,-2 0.275,0 -0.31449,0.9 -1.30998,2 -0.99549,1.1 -2.03498,2 -2.30998,2 -0.275,0 0.31449,-0.9 1.30998,-2 z m 90,-7 c 0.99549,-1.1 2.03498,-2 2.30998,-2 0.275,0 -0.31449,0.9 -1.30998,2 -0.99549,1.1 -2.03498,2 -2.30998,2 -0.275,0 0.31449,-0.9 1.30998,-2 z M 138.47226,162.25052 138.5,138.5 l 23.25054,-0.0283 23.25055,-0.0283 -22.98249,0.29665 -22.98249,0.29664 -0.29579,23.48214 -0.2958,23.48214 z M 152.4626,169.25096 152.5,152.5 l 15.75107,-0.0394 15.75107,-0.0394 -15.47701,0.31462 -15.477,0.31463 -0.31147,16.47569 -0.31146,16.4757 z M 361.23027,162.76843 361,139.03686 l -23.25,-0.28778 -23.25,-0.28778 23.28138,-0.23065 c 18.08411,-0.17916 23.39032,0.0532 23.76936,1.04099 0.26839,0.6994 0.35789,11.6119 0.19889,24.25 L 361.46053,186.5 Z M 124.47763,154.75034 124.5,124.5 l 30,-0.0231 30,-0.0231 -29.73536,0.28795 -29.73536,0.28795 -0.28701,29.98548 -0.287,29.98548 z M 347.22194,169.27418 347,153.04836 l -16.75,-0.30006 -16.75,-0.30005 16.78138,-0.22413 c 12.9574,-0.17305 16.89436,0.0703 17.27717,1.06787 0.27268,0.71059 0.35843,8.24809 0.19055,16.75 L 347.44388,185.5 Z M 375.2343,155.26488 375,125.02976 l -29.75,-0.28034 -29.75,-0.28033 29.78138,-0.23455 c 23.2217,-0.18288 29.88802,0.0433 30.26549,1.027 0.26625,0.69385 0.35756,14.53135 0.20291,30.75 L 375.4686,185.5 Z m -203.95413,10.99885 c 2.6291,-0.20668 6.6791,-0.20418 9,0.006 2.32091,0.20972 0.16983,0.37882 -4.78017,0.37577 -4.95,-0.003 -6.84892,-0.17464 -4.21983,-0.38131 z m 149,0 c 2.6291,-0.20668 6.6791,-0.20418 9,0.006 2.32091,0.20972 0.16983,0.37882 -4.78017,0.37577 -4.95,-0.003 -6.84892,-0.17464 -4.21983,-0.38131 z m -40.20122,-12.84706 c 0.048,-1.16495 0.28494,-1.4019 0.60416,-0.60417 0.28887,0.72187 0.25335,1.58437 -0.0789,1.91667 -0.33229,0.33229 -0.56864,-0.25834 -0.52522,-1.3125 z M 257.94617,120.25 254.5,116.5 l 3.75,3.44617 c 2.0625,1.89539 3.75,3.58289 3.75,3.75 0,0.76362 -0.84622,0.0443 -4.05383,-3.44617 z m -9.71998,-6.82872 c 0.94941,-0.99123 1.94144,-1.58698 2.20452,-1.3239 0.26308,0.26308 -0.5137,1.07408 -1.72619,1.80223 -2.10631,1.26492 -2.12762,1.24361 -0.47833,-0.47833 z"
         id="path5" />
      <path
         style="fill:#84827c"
         d="m 253,404.62244 c 0,-0.20765 0.7875,-0.99515 1.75,-1.75 1.58606,-1.24387 1.62143,-1.2085 0.37756,0.37756 C 253.82119,404.91575 253,405.44548 253,404.62244 Z M 239.40499,397.75 237.5,395.5 l 2.25,1.90499 c 2.11444,1.79022 2.70524,2.59501 1.90499,2.59501 -0.18976,0 -1.20226,-1.0125 -2.25,-2.25 z m -9.43388,-9.5 -6.47111,-6.75 6.75,6.47111 c 6.26969,6.01065 7.20713,7.02889 6.47111,7.02889 -0.15339,0 -3.19089,-3.0375 -6.75,-6.75 z M 277.5,380 c 0.99549,-1.1 2.03498,-2 2.30998,-2 0.275,0 -0.31449,0.9 -1.30998,2 -0.99549,1.1 -2.03498,2 -2.30998,2 -0.275,0 0.31449,-0.9 1.30998,-2 z m -58.42105,-34.58333 c 0.048,-1.16495 0.28494,-1.4019 0.60416,-0.60417 0.28887,0.72187 0.25335,1.58438 -0.0789,1.91667 -0.3323,0.33229 -0.56864,-0.25834 -0.52522,-1.3125 z M 115.87244,274.25 c -1.24387,-1.58606 -1.2085,-1.62143 0.37756,-0.37756 0.9625,0.75485 1.75,1.54235 1.75,1.75 0,0.82304 -0.82119,0.29331 -2.12756,-1.37244 z m -6,-6 c -1.24387,-1.58606 -1.2085,-1.62143 0.37756,-0.37756 0.9625,0.75485 1.75,1.54235 1.75,1.75 0,0.82304 -0.82119,0.29331 -2.12756,-1.37244 z m -13.999995,-14 c -1.243871,-1.58606 -1.208501,-1.62143 0.377555,-0.37756 0.9625,0.75485 1.75,1.54235 1.75,1.75 0,0.82304 -0.821186,0.29331 -2.127555,-1.37244 z M 113.5,248 c 0.99549,-1.1 2.03498,-2 2.30998,-2 0.275,0 -0.31449,0.9 -1.30998,2 -0.99549,1.1 -2.03498,2 -2.30998,2 -0.275,0 0.31449,-0.9 1.30998,-2 z m 8.5,-8.31291 c 0,-0.1721 1.4625,-1.6346 3.25,-3.25 l 3.25,-2.93709 -2.93709,3.25 C 122.82513,239.77946 122,240.45965 122,239.68709 Z M 219.5,122 c 0.99549,-1.1 2.03498,-2 2.30998,-2 0.275,0 -0.31449,0.9 -1.30998,2 -0.99549,1.1 -2.03498,2 -2.30998,2 -0.275,0 0.31449,-0.9 1.30998,-2 z m 21.5,-1.5 c 1.86578,-1.925 3.61733,-3.5 3.89233,-3.5 0.275,0 -1.02655,1.575 -2.89233,3.5 -1.86578,1.925 -3.61733,3.5 -3.89233,3.5 -0.275,0 1.02655,-1.575 2.89233,-3.5 z m -17,-2.87756 c 0,-0.20765 0.7875,-0.99515 1.75,-1.75 1.58606,-1.24387 1.62143,-1.2085 0.37756,0.37756 C 224.82119,117.91575 224,118.44548 224,117.62244 Z m 5,-4.89747 c 0,-0.15126 3.4875,-3.63876 7.75,-7.75 L 244.5,97.5 l -7.47497,7.75 C 230.08244,112.44803 229,113.45627 229,112.72497 Z m 20.01429,-20.139256 c 0.64761,-0.647619 1.32381,-0.647619 1.97142,0 0.64762,0.647619 0.30953,0.985715 -0.98571,0.985715 -1.29524,0 -1.63333,-0.338096 -0.98571,-0.985715 z"
         id="path4" />
      <path
         style="fill:#807d78"
         d="m 268.5,408 c 10.43914,-10.45 19.20526,-19 19.48026,-19 0.275,0 -8.04112,8.55 -18.48026,19 -10.43914,10.45 -19.20526,19 -19.48026,19 -0.275,0 8.04112,-8.55 18.48026,-19 z M 250,407.62244 c 0,-0.20765 0.7875,-0.99515 1.75,-1.75 1.58606,-1.24387 1.62143,-1.2085 0.37756,0.37756 C 250.82119,407.91575 250,408.44548 250,407.62244 Z m 6,-5.89747 c 0,-0.15126 3.4875,-3.63876 7.75,-7.75 l 7.75,-7.47497 -7.47497,7.75 C 257.08244,401.44803 256,402.45627 256,401.72497 Z M 273.5,384 c 0.99549,-1.1 2.03498,-2 2.30998,-2 0.275,0 -0.31449,0.9 -1.30998,2 -0.99549,1.1 -2.03498,2 -2.30998,2 -0.275,0 0.31449,-0.9 1.30998,-2 z m 17.5,1.62244 c 0,-0.20765 0.7875,-0.99515 1.75,-1.75 1.58606,-1.24387 1.62143,-1.2085 0.37756,0.37756 C 291.82119,385.91575 291,386.44548 291,385.62244 Z M 281.5,376 c 0.99549,-1.1 2.03498,-2 2.30998,-2 0.275,0 -0.31449,0.9 -1.30998,2 -0.99549,1.1 -2.03498,2 -2.30998,2 -0.275,0 0.31449,-0.9 1.30998,-2 z m 13.37244,-37.75 c -1.24387,-1.58606 -1.2085,-1.62143 0.37756,-0.37756 1.66575,1.30637 2.19548,2.12756 1.37244,2.12756 -0.20765,0 -0.99515,-0.7875 -1.75,-1.75 z M 286.232,316 c 0,-1.925 0.2058,-2.7125 0.45733,-1.75 0.25152,0.9625 0.25152,2.5375 0,3.5 -0.25153,0.9625 -0.45733,0.175 -0.45733,-1.75 z M 115.87244,293.25 c -1.24387,-1.58606 -1.2085,-1.62143 0.37756,-0.37756 0.9625,0.75485 1.75,1.54235 1.75,1.75 0,0.82304 -0.82119,0.29331 -2.12756,-1.37244 z M 382,294.62244 c 0,-0.20765 0.7875,-0.99515 1.75,-1.75 1.58606,-1.24387 1.62143,-1.2085 0.37756,0.37756 C 382.82119,294.91575 382,295.44548 382,294.62244 Z M 404.5,272 c 10.43914,-10.45 19.20526,-19 19.48026,-19 0.275,0 -8.04112,8.55 -18.48026,19 -10.43914,10.45 -19.20526,19 -19.48026,19 -0.275,0 8.04112,-8.55 18.48026,-19 z M 293,289.62244 c 0,-0.20765 0.7875,-0.99515 1.75,-1.75 1.58606,-1.24387 1.62143,-1.2085 0.37756,0.37756 C 293.82119,289.91575 293,290.44548 293,289.62244 Z m -109.73097,-3.31543 c 0.97297,-0.25354 2.32297,-0.23687 3,0.0371 0.67703,0.27393 -0.11903,0.48137 -1.76903,0.46099 -1.65,-0.0204 -2.20394,-0.2445 -1.23097,-0.49804 z M 389.5,268 c 7.68526,-7.7 14.19821,-14 14.47321,-14 0.275,0 -5.78795,6.3 -13.47321,14 -7.68526,7.7 -14.19821,14 -14.47321,14 -0.275,0 5.78795,-6.3 13.47321,-14 z m -276.62756,3.25 c -1.24387,-1.58606 -1.2085,-1.62143 0.37756,-0.37756 0.9625,0.75485 1.75,1.54235 1.75,1.75 0,0.82304 -0.82119,0.29331 -2.12756,-1.37244 z m -9.9066,-10 -5.46584,-5.75 5.75,5.46584 c 3.1625,3.00621 5.75,5.59371 5.75,5.75 0,0.74225 -0.95622,-0.12391 -6.03416,-5.46584 z m 108.11311,-8.83333 c 0.048,-1.16495 0.28494,-1.4019 0.60416,-0.60417 0.28887,0.72187 0.25335,1.58437 -0.0789,1.91667 -0.3323,0.33229 -0.56864,-0.25834 -0.52522,-1.3125 z m 77,0 c 0.048,-1.16495 0.28494,-1.4019 0.60416,-0.60417 0.28887,0.72187 0.25335,1.58437 -0.0789,1.91667 -0.33229,0.33229 -0.56864,-0.25834 -0.52522,-1.3125 z M 92.948117,251.43749 c -1.108913,-1.33616 -0.585517,-2.24158 3.612962,-6.25 l 4.909731,-4.68749 -4.397144,4.70265 c -3.725751,3.98461 -4.201065,4.93892 -3.112961,6.25 0.706301,0.85104 1.059184,1.54735 0.784184,1.54735 -0.275,0 -1.083547,-0.70313 -1.796772,-1.56251 z m 313.152273,-0.14201 c 0.72815,-1.21249 1.53915,-1.98927 1.80223,-1.72619 0.26308,0.26308 -0.33267,1.25511 -1.3239,2.20452 -1.72194,1.64929 -1.74325,1.62798 -0.47833,-0.47833 z M 422,245.5 c -2.42903,-2.475 -4.19142,-4.5 -3.91642,-4.5 0.275,0 2.48739,2.025 4.91642,4.5 2.42903,2.475 4.19142,4.5 3.91642,4.5 -0.275,0 -2.48739,-2.025 -4.91642,-4.5 z M 390.48124,232.75 380.5,222.5 l 10.25,9.98124 C 400.27024,241.75186 401.45461,243 400.73124,243 c -0.14782,0 -4.76032,-4.6125 -10.25,-10.25 z m 24.3912,5.5 c -1.24387,-1.58606 -1.2085,-1.62143 0.37756,-0.37756 1.66575,1.30637 2.19548,2.12756 1.37244,2.12756 -0.20765,0 -0.99515,-0.7875 -1.75,-1.75 z M 106,235.5 c 1.86578,-1.925 3.61733,-3.5 3.89233,-3.5 0.275,0 -1.02655,1.575 -2.89233,3.5 -1.86578,1.925 -3.61733,3.5 -3.89233,3.5 -0.275,0 1.02655,-1.575 2.89233,-3.5 z m 300.92431,-5.25 -2.42431,-2.75 2.75,2.42431 c 1.5125,1.33338 2.75,2.57088 2.75,2.75 0,0.78428 -0.8098,0.14598 -3.07569,-2.42431 z M 111,230.72497 c 0,-0.15126 3.4875,-3.63876 7.75,-7.75 l 7.75,-7.47497 -7.47497,7.75 C 112.08244,230.44803 111,231.45627 111,230.72497 Z M 376.87244,219.25 c -1.24387,-1.58606 -1.2085,-1.62143 0.37756,-0.37756 1.66575,1.30637 2.19548,2.12756 1.37244,2.12756 -0.20765,0 -0.99515,-0.7875 -1.75,-1.75 z m -62.60341,-5.94299 c 0.97297,-0.25354 2.32297,-0.23687 3,0.0371 0.67703,0.27393 -0.11903,0.48137 -1.76903,0.46099 -1.65,-0.0204 -2.20394,-0.2445 -1.23097,-0.49804 z M 115,207.62244 c 0,-0.20765 0.7875,-0.99515 1.75,-1.75 1.58606,-1.24387 1.62143,-1.2085 0.37756,0.37756 C 115.82119,207.91575 115,208.44548 115,207.62244 Z M 382.87244,206.25 c -1.24387,-1.58606 -1.2085,-1.62143 0.37756,-0.37756 1.66575,1.30637 2.19548,2.12756 1.37244,2.12756 -0.20765,0 -0.99515,-0.7875 -1.75,-1.75 z m -95,-1 c -1.24387,-1.58606 -1.2085,-1.62143 0.37756,-0.37756 1.66575,1.30637 2.19548,2.12756 1.37244,2.12756 -0.20765,0 -0.99515,-0.7875 -1.75,-1.75 z M 213.232,184 c 0,-1.925 0.2058,-2.7125 0.45733,-1.75 0.25152,0.9625 0.25152,2.5375 0,3.5 -0.25153,0.9625 -0.45733,0.175 -0.45733,-1.75 z M 272.98213,115.25 262.5,104.5 l 10.75,10.48213 c 5.9125,5.76518 10.75,10.60268 10.75,10.75 0,0.72221 -1.28184,-0.4973 -11.01787,-10.48213 z M 206,116.62244 c 0,-0.20765 0.7875,-0.99515 1.75,-1.75 1.58606,-1.24387 1.62143,-1.2085 0.37756,0.37756 C 206.82119,116.91575 206,117.44548 206,116.62244 Z M 285.47654,108.75 277.5,100.5 l 8.25,7.97654 c 7.66235,7.40837 8.70589,8.52346 7.97654,8.52346 -0.1504,0 -3.8629,-3.7125 -8.25,-8.25 z m -29.01413,-10 -4.96241,-5.25 5.25,4.962408 c 2.8875,2.729322 5.25,5.091822 5.25,5.250002 0,0.74619 -0.92643,-0.084 -5.53759,-4.96241 z M 245.5,96 c 0.99549,-1.1 2.03498,-2 2.30998,-2 0.275,0 -0.31449,0.9 -1.30998,2 -0.99549,1.1 -2.03498,2 -2.30998,2 -0.275,0 0.31449,-0.9 1.30998,-2 z M 270.43709,93.75 267.5,90.5 l 3.25,2.937091 C 273.77946,96.174872 274.45965,97 273.68709,97 c -0.1721,0 -1.6346,-1.4625 -3.25,-3.25 z"
         id="path3" />
      <path
         style="fill:#514f48"
         d="m 227.7736,405.13992 c -11.86302,-12.01787 -23.25034,-24.1908 -25.30515,-27.05095 -2.8374,-3.94945 -4.12477,-5.01099 -5.35224,-4.41332 -0.88891,0.43282 -17.50511,0.93427 -36.92488,1.11432 l -35.30868,0.32738 0.32738,-35.30868 c 0.18005,-19.41977 0.68798,-36.05286 1.12873,-36.96243 0.61749,-1.27431 -0.30458,-2.40309 -4.0187,-4.91962 C 119.66903,296.13039 107.375,284.59673 95,272.29627 L 72.5,249.93179 95,227.64525 c 12.375,-12.2576 24.66903,-23.76057 27.32006,-25.56214 3.71316,-2.52338 4.63603,-3.65537 4.0187,-4.92935 -0.44075,-0.90957 -0.94868,-17.54266 -1.12873,-36.96243 l -0.32738,-35.30868 35.30868,0.32738 c 19.41977,0.18005 36.05286,0.68798 36.96243,1.12873 1.27345,0.61707 2.41071,-0.3071 4.94533,-4.0187 C 203.90946,119.66903 215.39721,107.375 227.62743,95 l 22.23676,-22.5 22.60543,23 c 12.43299,12.65 23.98185,24.94403 25.66415,27.32006 2.32907,3.28952 3.45321,4.12889 4.71247,3.5187 0.90957,-0.44075 17.54266,-0.94868 36.96243,-1.12873 l 35.30868,-0.32738 -0.32738,35.30868 c -0.18005,19.41977 -0.68798,36.05286 -1.12873,36.96243 -0.61776,1.27488 0.30294,2.39814 4.0187,4.90287 2.65103,1.78702 14.74236,13.31604 26.86962,25.62004 l 22.04955,22.37092 -23.04955,22.9652 c -12.67726,12.63086 -24.77031,24.13397 -26.87345,25.56246 -2.90316,1.97189 -3.63001,2.99787 -3.0187,4.26101 0.44285,0.91506 0.95251,17.55264 1.13256,36.97241 l 0.32738,35.30868 -35.30868,-0.32738 c -19.41977,-0.18005 -36.05286,-0.68798 -36.96243,-1.12873 -1.26172,-0.61138 -2.36273,0.22276 -4.64445,3.5187 -2.10246,3.03701 -40.33398,42.03589 -48.59008,49.56536 -0.14794,0.13492 -9.97509,-9.58751 -21.83811,-21.60538 z M 268.1631,390.25 c 15.39838,-15.57992 20.84025,-21.84622 19.66792,-22.64756 -0.18206,-0.12445 -2.64268,-1.88691 -5.46804,-3.91659 l -5.13703,-3.69032 -13.57596,13.75223 -13.57596,13.75224 -12.07191,-12 c -14.87509,-14.78648 -18.00715,-20.16716 -17.99235,-30.90972 0.0112,-8.16373 2.99126,-15.89235 8.21609,-21.30829 2.30512,-2.38943 2.74008,-3.34613 1.6893,-3.71563 -0.77834,-0.27369 -4.02157,-1.4525 -7.20718,-2.61956 -6.68811,-2.45023 -7.30863,-2.19076 -11.38162,4.75928 -5.90216,10.07128 -7.80337,23.15753 -4.93143,33.94373 2.67861,10.06013 6.45703,15.21065 25.01593,34.10019 9.8618,10.0375 18.21821,18.25 18.56981,18.25 0.3516,0 8.53369,-7.9875 18.18243,-17.75 z m -9.90103,-30.06887 c 8.70003,-8.9401 9.72423,-11.34856 6.91553,-16.26212 -1.07491,-1.88046 -2.69544,-5.72031 -3.60118,-8.53301 -1.39932,-4.34544 -2.23747,-5.38034 -5.57708,-6.8863 -12.72437,-5.73789 -27.06824,8.66809 -21.9734,22.06853 0.97765,2.5714 14.59157,17.43177 15.96965,17.43177 0.36167,0 4.08159,-3.51849 8.26648,-7.81887 z M 191,361.06179 c 1.375,-0.40636 2.37745,-1.29166 2.22766,-1.96732 -0.14978,-0.67567 -0.53909,-3.78583 -0.86513,-6.91148 L 191.76974,346.5 172.38487,346.80943 153,347.11885 v -17.88128 c 0,-20.66746 0.87752,-24.54472 7.174,-31.6979 5.99984,-6.81618 11.61221,-9.71986 19.93847,-10.3156 3.82955,-0.27401 6.83338,-0.79849 6.67518,-1.16551 -7.00184,-16.24375 -5.9801,-15.49938 -16.69669,-12.164 -11.24174,3.49882 -22.29548,12.6698 -26.96827,22.3748 C 138.70015,305.45463 138,311.05025 138,337.2101 V 362 l 25.25,-0.0997 c 13.8875,-0.0548 26.375,-0.43216 27.75,-0.83853 z M 361.98899,337.75 c -0.0123,-27.15944 -0.46003,-32.16696 -2.79582,-31.27063 -0.84029,0.32245 -4.04001,0.84831 -7.11049,1.16858 L 346.5,308.23026 346.80943,327.61513 347.11885,347 328.80943,346.99 C 311.30468,346.981 310.25828,346.8685 305,344.4329 c -11.14287,-5.16131 -18,-15.28601 -18,-26.5774 0,-3.68108 -0.34234,-4.91945 -1.25,-4.52167 -0.6875,0.3013 -3.95,1.67296 -7.25,3.04813 -6.98007,2.90873 -7.41023,3.97515 -4.97813,12.34128 2.37096,8.1558 4.6761,12.23804 10.52303,18.63551 5.61074,6.13905 15.97876,12.00353 23.9551,13.54978 2.475,0.47978 15.6375,0.92164 29.25,0.9819 L 362,362 Z m -172.80725,-4.78373 c 3.02271,-0.83954 3.89268,-1.6888 4.86017,-4.74443 0.64813,-2.04701 2.30505,-6.2865 3.68204,-9.42107 l 2.50361,-5.69924 -2.21918,-4.58421 c -5.66,-11.692 -23.76834,-11.41897 -29.75838,0.44869 -1.89867,3.76171 -2.25,6.06422 -2.25,14.74588 V 334 l 9.75,-0.006 c 5.3625,-0.003 11.40678,-0.46573 13.43174,-1.02815 z M 333.99442,324.25 c -0.003,-5.3625 -0.47074,-11.42492 -1.03928,-13.47203 -0.89735,-3.23107 -1.58692,-3.871 -5.22768,-4.85136 -2.30668,-0.62112 -6.39927,-2.24683 -9.09464,-3.61267 -4.80411,-2.43443 -4.98686,-2.45045 -9.27488,-0.81284 -12.38367,4.72937 -12.4704,24.27432 -0.13482,30.38031 3.51509,1.73994 6.10259,2.11715 14.52688,2.1178 L 334,334 Z m -71.14595,-16.68172 c 20.92976,-4.48849 38.72492,-21.85042 44.15439,-43.07945 11.00763,-43.03945 -28.40542,-82.5113 -71.40685,-71.51339 -10.97231,2.80625 -18.9616,7.38666 -27.24523,15.62022 -18.15603,18.04628 -22.44204,43.84534 -11.18116,67.30351 7.33033,15.27022 23.27398,28.14928 39.10613,31.58939 8.08052,1.75578 18.60997,1.78737 26.57272,0.0797 z m -19.62223,-19.68077 c -25.30948,-4.21316 -39.24666,-33.18351 -27.00945,-56.14286 9.59711,-18.00603 31.28691,-25.07007 50.27912,-16.37515 18.73048,8.5751 27.00912,31.74189 18.21064,50.96031 -7.12649,15.56631 -24.19231,24.43557 -41.48031,21.5577 z M 260,272.91909 c 20.13671,-9.11517 19.72781,-37.90292 -0.65935,-46.42122 -5.26123,-2.19828 -14.46345,-1.92045 -19.82223,0.59847 -5.07144,2.38386 -11.04349,8.52274 -13.11559,13.48198 -1.72579,4.1304 -1.81153,12.30639 -0.18671,17.80566 1.50502,5.09384 9.87566,13.76161 14.78388,15.30866 5.77708,1.82091 14.00883,1.48577 19,-0.77355 z m 96.14448,20.25045 c 10.41553,-2.88814 15.12094,-6.34823 34.28337,-25.21013 l 17.96951,-17.68767 -17.44868,-17.47231 c -15.79284,-15.81422 -22.50066,-21.77127 -23.2918,-20.68489 -0.15439,0.212 -1.95304,2.71305 -3.99701,5.55787 l -3.7163,5.17242 13.77822,13.52782 13.77821,13.52781 -12,12.12333 c -13.93384,14.07704 -18.72203,17.03578 -28.73747,17.75759 -8.97057,0.6465 -14.90816,-1.14888 -21.46691,-6.49105 -4.59875,-3.74574 -5.41614,-4.10092 -5.91111,-2.56857 -0.31592,0.97803 -1.48935,4.15407 -2.60763,7.05787 -1.89393,4.91793 -1.92017,5.40456 -0.38306,7.10304 2.47607,2.73602 10.62611,6.89854 16.71081,8.53481 7.43979,2.00067 15.23311,1.91681 23.03985,-0.24794 z m -219.9658,-10.66719 3.67868,-5.42141 L 126.17868,263.57717 112.5,250.0734 124.92881,237.59302 c 15.43301,-15.49704 20.0407,-18.00983 31.92198,-17.4085 8.52947,0.43169 12.78128,2.09677 19.04512,7.45837 2.86601,2.45321 4.24663,3.11348 4.57084,2.18599 0.25548,-0.73088 1.42326,-3.94563 2.59505,-7.14388 2.03312,-5.54912 2.05051,-5.90341 0.38037,-7.7489 -0.96259,-1.06365 -4.3946,-3.25535 -7.62669,-4.87044 -15.7112,-7.85098 -33.38404,-6.22039 -47.54025,4.38632 -3.17637,2.37994 -12.74449,11.35156 -21.26248,19.93694 l -15.487253,15.60978 13.987253,14.09982 c 13.60004,13.70949 24.87139,23.94079 26.28917,23.86335 0.38394,-0.021 2.35349,-2.47775 4.37676,-5.45952 z m 21.71431,-18.04338 c 2.89702,-1.39757 6.60301,-2.80817 8.23554,-3.13468 2.18216,-0.43643 3.51426,-1.66394 5.03005,-4.63513 6.72994,-13.19178 -8.50184,-28.32625 -22.4407,-22.29735 -1.76983,0.7655 -6.35535,4.59003 -10.19003,8.49896 l -6.97214,7.10714 6.47214,6.61215 c 6.34543,6.48268 11.4227,10.37877 13.535,10.3862 0.58456,0.002 3.43313,-1.13972 6.33014,-2.53729 z m 193.49777,1.02584 c 1.75616,-0.83335 6.3121,-4.65835 10.12431,-8.5 L 368.44636,250 l -6.8669,-6.91993 c -3.7768,-3.80596 -8.34724,-7.71714 -10.15654,-8.69151 -3.26129,-1.75632 -3.34404,-1.74533 -9.60627,1.27627 -3.47416,1.67632 -7.50056,3.33263 -8.94757,3.68068 -4.73335,1.13852 -7.27959,9.80155 -4.80247,16.33939 3.31749,8.75581 15.0957,13.70457 23.32415,9.79991 z M 328.64981,226.60507 C 344.1879,222.4679 356.17659,209.93738 360.50833,193.3067 361.63643,188.97564 362,181.53765 362,162.7899 V 138 l -24.25,0.011 c -27.15944,0.0123 -32.16696,0.46003 -31.27063,2.79582 0.32245,0.84029 0.84831,4.04001 1.16858,7.11049 l 0.58231,5.58268 19.46209,-0.31017 19.46209,-0.31017 -0.32722,19.31017 c -0.30007,17.70819 -0.51635,19.69405 -2.60702,23.93745 -4.97535,10.09841 -13.44793,15.86572 -24.4702,16.65692 -3.7125,0.2665 -6.75,0.59469 -6.75,0.72932 0,0.13464 1.06912,2.66167 2.37583,5.61564 1.3067,2.95396 2.64258,6.15834 2.96861,7.12084 0.71303,2.10497 3.38718,2.19711 10.30537,0.35507 z M 191.50018,197.99991 C 196.76972,195.44897 200,189.9628 200,183.56419 c 0,-5.32255 -1.58624,-8.8955 -5.66072,-12.75057 C 190.13894,166.83947 186.92931,166 175.9349,166 H 166 v 10.35078 c 0,14.12704 0.81705,16.14663 7.33133,18.12162 2.84277,0.86186 6.74367,2.43929 8.66867,3.5054 4.39873,2.4361 4.51299,2.43637 9.50018,0.0221 z m 133.38084,-0.0532 c 2.00933,-1.1293 4.7706,-3.68184 6.13616,-5.6723 2.21762,-3.23246 2.51872,-4.82899 2.81887,-14.94672 L 334.17211,166 l -9.83606,0.006 c -13.57879,0.008 -16.88108,1.04495 -18.37796,5.77258 -0.64813,2.04701 -2.33834,6.36068 -3.75602,9.58592 l -2.57759,5.86409 2.36127,4.45104 c 1.46083,2.7537 3.72512,5.17203 5.93776,6.34172 4.85467,2.56637 12.31733,2.53371 16.95751,-0.0742 z M 147.68248,192.45761 153.5,191.80063 153.19057,172.40031 152.88115,153 h 17.88128 c 21.30026,0 24.72949,0.85506 32.72094,8.15879 6.26494,5.72581 9.51663,12.8963 9.51663,20.98571 0,3.68108 0.34234,4.91945 1.25,4.52167 0.6875,-0.3013 3.95,-1.67402 7.25,-3.0505 3.3,-1.37648 6.1425,-3.18756 6.31667,-4.02463 0.60625,-2.91366 -2.91254,-14.12664 -6.10394,-19.45083 -6.25514,-10.43545 -18.3771,-18.80081 -30.60355,-21.1195 C 188.14899,138.45932 174.98844,138 161.86351,138 H 138 l 0.011,24.25 c 0.0119,26.24186 0.49468,32.15366 2.56098,31.36075 0.71113,-0.27289 3.91085,-0.7918 7.11049,-1.15314 z m 139.27875,-11.56279 c 6.88864,-9.50948 9.63429,-24.13861 6.68709,-35.62947 -3.00244,-11.70626 -5.7891,-15.59738 -25.24821,-35.25512 L 250.07691,91.5 233.5122,108 c -14.90376,14.84553 -22.52646,23.50756 -21.41075,24.33003 0.2192,0.16159 2.71021,1.95444 5.53557,3.98412 l 5.13703,3.69032 13.57596,-13.75223 13.57596,-13.75224 11.9684,11.91593 c 6.65447,6.6253 13.21985,14.17323 14.78701,17 2.50844,4.52458 2.81783,6.0745 2.81145,14.08407 -0.008,9.89093 -1.50801,14.03088 -7.59707,20.96594 -2.21844,2.52666 -2.7111,3.65546 -1.74386,3.99557 0.74146,0.26072 3.5981,1.34251 6.3481,2.40397 6.93375,2.67633 7.12045,2.64116 10.46123,-1.97066 z m -27.49416,-11.30191 c 6.74527,-5.14486 9.30245,-14.06167 6.01774,-20.98367 -0.83335,-1.75616 -4.65876,-6.3125 -8.5009,-10.12521 l -6.98571,-6.93218 -7.4513,7.40156 c -10.17126,10.10338 -10.6027,11.36594 -6.77527,19.82712 1.67176,3.69571 3.31224,7.65279 3.64551,8.79351 1.65944,5.68 13.66504,6.88887 20.04993,2.01887 z"
         id="path2" />
    </g>
  </g>
</svg>
